<svg xmlns="http://www.w3.org/2000/svg" viewBox="0 0 371.18 710.66"><defs><style>.cls-1{fill:#ddd9d4;stroke:#a48a7b;stroke-width:2px;}.cls-1,.cls-13{stroke-miterlimit:10;}.cls-2{fill:#bdb534;}.cls-3,.cls-4{fill:none;}.cls-13,.cls-3{stroke:#1d1d1b;stroke-width:0.5px;}.cls-4{stroke:#ffed00;stroke-width:0.25px;}.cls-5{opacity:0.47;}.cls-6{fill:#82368c;}.cls-7{opacity:0.38;}.cls-8{fill:#e6007e;}.cls-9{fill:#00983a;}.cls-10{fill:#27348b;}.cls-11{fill:#010101;}.cls-12{fill:#d60b52;opacity:0.58;}.cls-13{fill:#9e9b25;}.cls-14{opacity:0.53;}.cls-15{fill:#ffe6ba;}.cls-16{fill:#ecd3ab;}.cls-17{fill:#83c8dc;}.cls-18{fill:#b7e0eb;}.cls-19{fill:#ddf0f6;}.cls-20{fill:#a2d7e2;}.cls-21{fill:#edf7fa;}</style></defs><g id="Livello_2" data-name="Livello 2"><g id="Livello_1-2" data-name="Livello 1"><rect class="cls-1" x="1.67" y="1" width="368.5" height="708.66"/><path class="cls-2" d="M175.17,295.77h-.48a33.83,33.83,0,0,1,4.93-8.57,33.18,33.18,0,0,1,6.26-6.15,27.71,27.71,0,0,1,6.29-3.54,14.8,14.8,0,0,1,5.07-1.16,4.08,4.08,0,0,1,3.18,1.3,5.11,5.11,0,0,1,1.18,3.54q0,3.88-3.44,10.17a70.92,70.92,0,0,1-9,12.58,60.26,60.26,0,0,1-11.65,10.37q-6.14,4.08-11.29,4.08a7,7,0,0,1-5-1.84,7.3,7.3,0,0,1-1.94-5.53,20.38,20.38,0,0,1,2.08-8.63,40.27,40.27,0,0,1,6.29-9.28,80.6,80.6,0,0,1,10.25-9.71,61.65,61.65,0,0,1,12.91-8.15,28.28,28.28,0,0,1,11.59-2.74,9.18,9.18,0,0,1,5.43,1.42,4.54,4.54,0,0,1,2,3.9,5.67,5.67,0,0,1-1.76,4.38,12,12,0,0,1-5.13,2.51l.08-.6a8.77,8.77,0,0,0,4.67-2.43,5.62,5.62,0,0,0,1.54-3.86,4,4,0,0,0-1.88-3.52,9.3,9.3,0,0,0-5.17-1.24,27.74,27.74,0,0,0-12.25,3.1A42.89,42.89,0,0,0,178.06,285a90.11,90.11,0,0,0-6.29,7.16,95.54,95.54,0,0,0-5.56,7.79,56.76,56.76,0,0,0-4,7.27,14.18,14.18,0,0,0-1.5,5.56,5,5,0,0,0,1.42,3.59,5.12,5.12,0,0,0,3.9,1.5q5,0,11-4a62.08,62.08,0,0,0,11.57-10.23,70.61,70.61,0,0,0,9-12.4q3.45-6.18,3.46-10a4.85,4.85,0,0,0-1-3.18,3.37,3.37,0,0,0-2.74-1.18,14.46,14.46,0,0,0-5.17,1.26,28.09,28.09,0,0,0-6.25,3.6,34.41,34.41,0,0,0-6,6A31.45,31.45,0,0,0,175.17,295.77Z" transform="translate(-7.9)"/><path class="cls-2" d="M192.83,308.06v-.64a39.07,39.07,0,0,1,7.37-5.33h3.36l-8.93,10.17c-1.49,1.71-2.24,2.7-2.24,3s.23.4.68.4q2.2,0,7.21-3.91t11.09-9.63h3.16l-9.33,10.65c-.11.14-.32.39-.66.77a5.81,5.81,0,0,0-.76,1,1.3,1.3,0,0,0-.22.78c0,.26.21.4.64.4,1,0,2.84-.89,5.57-2.66a48.22,48.22,0,0,0,8-6.63v.68a51.9,51.9,0,0,1-7.91,6.57q-3.95,2.59-5.79,2.6a1.24,1.24,0,0,1-1.4-1.4,6.92,6.92,0,0,1,1.22-3.33,48,48,0,0,1,3.79-5.12l.76-.88-1.49,1.32q-4.84,4.32-8.34,6.87c-2.34,1.69-4.17,2.54-5.51,2.54-1,0-1.48-.58-1.48-1.72a5.68,5.68,0,0,1,.66-2.47A17.38,17.38,0,0,1,194,309.3q1.11-1.44,2.34-2.82l2.53-2.82-2,1.2A49.94,49.94,0,0,0,192.83,308.06Z" transform="translate(-7.9)"/><path class="cls-2" d="M216.77,307.42c1.21-1,2.4-1.94,3.59-2.92s2.37-1.93,3.54-2.81a2.68,2.68,0,0,1,.32-2.22,1.86,1.86,0,0,1,1.56-1,1.47,1.47,0,0,1,.92.3.89.89,0,0,1,.4.74,1.08,1.08,0,0,1-.34.84,1.12,1.12,0,0,1-.82.32,2.29,2.29,0,0,1-1.32-.8,1.46,1.46,0,0,0-.24.88,1.11,1.11,0,0,0,.38.9,1.31,1.31,0,0,0,.94.42,5.25,5.25,0,0,0,1.08-.16c.54-.1.86-.16,1-.16s.39.2.54.6a4.47,4.47,0,0,1,.22,1.45,3.41,3.41,0,0,1-1,1.9c-.65.79-1.78,2.07-3.38,3.86s-2.71,3.06-3.32,3.81a3.19,3.19,0,0,0-.92,1.72c0,.4.26.6.8.6.75,0,2.34-.88,4.78-2.62s5.28-4,8.51-6.67v.68q-10.77,9.16-13.61,9.17-1.08,0-1.08-1.32a8.65,8.65,0,0,1,.74-3.57,14.93,14.93,0,0,1,2.54-3.72l4.68-5.17a4.78,4.78,0,0,1-1.9.29c-.7,0-1.14-.23-1.3-.61q-5.33,4.41-7.29,5.89Z" transform="translate(-7.9)"/><path class="cls-2" d="M158.12,356.09q2.44-2.56,6.92-7.19t8.55-8.13a51.7,51.7,0,0,1,8.29-5.88,16.12,16.12,0,0,1,7.83-2.38,6,6,0,0,1,3.64,1,3.22,3.22,0,0,1,1.36,2.76,2.29,2.29,0,0,1-.44,1.48,1.37,1.37,0,0,1-1.12.56c-.88,0-1.32-.41-1.32-1.24a1.09,1.09,0,0,1,1.24-1.24,1.32,1.32,0,0,1,.44.1,1.41,1.41,0,0,0,.36.1c.16,0,.24-.15.24-.44a2.09,2.09,0,0,0-1.18-1.8,6,6,0,0,0-3.14-.72,16,16,0,0,0-7.93,2.52,48.7,48.7,0,0,0-7.85,5.66q-3.52,3.15-7,6.81c-2.34,2.44-4.05,4.25-5.15,5.43q-3,3-7.57,7.7t-8,8a74.15,74.15,0,0,1-6.65,5.65,31.07,31.07,0,0,1-6.15,3.64l-.32-.48a53.36,53.36,0,0,0,7.05-9.25q8.13-14.17,14.73-21.74l2.65-3c1.78-2,3.4-3.81,4.84-5.33,1.68-1.68,2.42-2.52,2.2-2.52a19.46,19.46,0,0,0-3.14,2.66q-2.86,2.67-6.59,6.39t-6.4,6.68l-1.56,1.73c-1.93,2.19-4.07,4.53-6.45,7s-4.79,4.91-7.25,7.25a89.7,89.7,0,0,1-7.4,6.35,32.94,32.94,0,0,1-7,4.2l-.32-.48a35.58,35.58,0,0,0,5.14-5.87q2.55-3.54,6-9.14l2.12-3.45.56-1A106,106,0,0,1,145.67,342l2.88-2.88a12.33,12.33,0,0,1-6.89,2.64q-3.28,0-3.28-2.88c0-.08.05-.48.16-1.2s.16-1.16.16-1.32a2.37,2.37,0,0,0-.64-1.42,4.93,4.93,0,0,0-1.92-1.32,8,8,0,0,0-3.09-.54,14.42,14.42,0,0,0-7.14,1.76,13.46,13.46,0,0,0-4.87,4.3,8.66,8.66,0,0,0-1.68,4.67,4.29,4.29,0,0,0,1.58,3.42,6.09,6.09,0,0,0,4.06,1.34,11.57,11.57,0,0,0,6-1.64,23.1,23.1,0,0,0,5.55-4.93l.24.41q-5.08,6.72-11.9,6.72a6.66,6.66,0,0,1-4.48-1.44,4.84,4.84,0,0,1-1.68-3.88,9.2,9.2,0,0,1,1.8-5.11,14,14,0,0,1,5-4.42,15.44,15.44,0,0,1,7.52-1.76,8.6,8.6,0,0,1,5.17,1.42,4.28,4.28,0,0,1,2,3.62c0,.13,0,.47-.08,1s-.08.84-.08.92c0,1.15.65,1.72,2,1.72a9.54,9.54,0,0,0,5.79-2.24,55.13,55.13,0,0,0,5.62-4.92l.8-.82a4.13,4.13,0,0,1,.58-.52,1,1,0,0,1,.58-.18c.22,0,.32.05.32.16s-.6.81-1.8,1.88a50.76,50.76,0,0,0-7.34,7.77,103.46,103.46,0,0,0-6.43,9.68q-2.69,4.49-4.1,6.63c-1,1.43-2.51,3.44-4.67,6.05s-5.23,6.08-9.21,10.43L120.56,377a56.46,56.46,0,0,0,6.17-4.21q3-2.31,5.06-4.28t4.47-4.34q2.36-2.39,6.36-6.71l2.88-3.12q3.38-3.69,6.53-7t5.85-6c1.79-1.77,3.57-3.42,5.36-4.94a47.24,47.24,0,0,1,5-3.8l.52.4q-6.88,7.72-8.29,9.65-.53.75-2.4,3.68l-3.33,5.14q-1.44,2.22-3.4,5.15-5.37,7.77-7.95,11t-7.3,8.23L135,377a41.93,41.93,0,0,0,6-4.21q3.4-2.76,6.55-5.8t6-6Q156.4,357.94,158.12,356.09Z" transform="translate(-7.9)"/><path class="cls-2" d="M173.37,366.42v.68a49,49,0,0,1-8.21,6.83,14,14,0,0,1-7.52,2.34q-3.37,0-3.37-3.85a7.69,7.69,0,0,1,2.43-5.62,16.48,16.48,0,0,1,5.68-3.72,15.21,15.21,0,0,1,5.31-1.31,2.8,2.8,0,0,1,1.82.54,1.77,1.77,0,0,1,.66,1.43,3.22,3.22,0,0,1-1.48,2.5,12.06,12.06,0,0,1-4.13,1.88,26.63,26.63,0,0,1-6.2.86q-3,3.45-3.05,5.25a1.23,1.23,0,0,0,.67,1.06,3,3,0,0,0,1.66.42Q164.08,375.71,173.37,366.42Zm-14.21,1.8a16.31,16.31,0,0,0,5.6-.84,9.7,9.7,0,0,0,3.47-2c.78-.78,1.18-1.4,1.18-1.88,0-.78-.46-1.17-1.36-1.17a8,8,0,0,0-4.21,1.59A22,22,0,0,0,159.16,368.22Z" transform="translate(-7.9)"/><path class="cls-2" d="M186.1,365.62l21.63-24.71H211L185.78,369.7c-.56.64-1.17,1.36-1.84,2.16s-1.15,1.43-1.46,1.89a4.44,4.44,0,0,0-.64,1.32c-.12.42.07.64.58.64.67,0,2.31-1,4.93-3.1s5.07-4.14,7.36-6.19v.68q-4.72,4.13-7.94,6.65t-4.71,2.52c-.69,0-1-.41-1-1.24a11,11,0,0,1,1.12-4.17.18.18,0,0,0-.06-.1s-.07-.06-.1-.06q-5.56,5.57-8.77,5.57-2.28,0-2.28-3.77a8,8,0,0,1,2.24-5.44,15.49,15.49,0,0,1,5.53-3.88,15.06,15.06,0,0,1,5.84-1.41c1.36,0,2,.58,2,1.73A4.54,4.54,0,0,1,186.1,365.62Zm-1.72-3.29q-1.63,0-4.68,2.31a30.56,30.56,0,0,0-5.39,5.2c-1.56,1.94-2.34,3.45-2.34,4.55,0,.88.41,1.32,1.24,1.32q1.77,0,4.87-2.3a32.44,32.44,0,0,0,5.52-5.19c1.62-1.92,2.42-3.39,2.42-4.4S185.48,362.33,184.38,362.33Z" transform="translate(-7.9)"/><path class="cls-2" d="M207.41,365.62,229,340.91h3.28L207.08,369.7c-.56.64-1.17,1.36-1.84,2.16s-1.15,1.43-1.46,1.89a4.44,4.44,0,0,0-.64,1.32c-.12.42.07.64.58.64.67,0,2.31-1,4.93-3.1s5.07-4.14,7.36-6.19v.68q-4.72,4.13-7.94,6.65t-4.71,2.52c-.69,0-1-.41-1-1.24a11,11,0,0,1,1.12-4.17.18.18,0,0,0-.06-.1s-.07-.06-.1-.06q-5.57,5.57-8.77,5.57-2.28,0-2.28-3.77a8,8,0,0,1,2.24-5.44,15.49,15.49,0,0,1,5.53-3.88,15.06,15.06,0,0,1,5.84-1.41c1.36,0,2,.58,2,1.73A4.54,4.54,0,0,1,207.41,365.62Zm-1.73-3.29q-1.63,0-4.68,2.31a30.56,30.56,0,0,0-5.39,5.2c-1.56,1.94-2.34,3.45-2.34,4.55,0,.88.42,1.32,1.24,1.32q1.77,0,4.87-2.3a32.81,32.81,0,0,0,5.52-5.19q2.43-2.88,2.43-4.4C207.33,362.83,206.78,362.33,205.68,362.33Z" transform="translate(-7.9)"/><path class="cls-2" d="M215.09,368l-.08-.64a47.2,47.2,0,0,1,7.13-5.25h3.6l-9.45,10.57a5.83,5.83,0,0,0-1.28,2.09q-.27,1,.48,1,2,0,6-3a73.56,73.56,0,0,0,7.33-6.24v.68a80.76,80.76,0,0,1-7.49,6.41c-2.4,1.78-4.37,2.68-5.89,2.68-.88,0-1.32-.47-1.32-1.4q0-4.17,6.49-10.65c.24-.24.46-.48.66-.7s.39-.44.58-.62A39.62,39.62,0,0,0,215.09,368ZM229,353.65c.58,0,.88.36.88,1.08a1.51,1.51,0,0,1-.36,1,1.18,1.18,0,0,1-.92.4c-.72,0-1.09-.32-1.09-1a1.55,1.55,0,0,1,.45-1.06A1.32,1.32,0,0,1,229,353.65Z" transform="translate(-7.9)"/><path class="cls-2" d="M227.7,368.06v-.64q6.09-5.64,8.53-5.65c.91,0,1.36.58,1.36,1.73a5,5,0,0,1-.84,2.68q-.84,1.32-3.4,4.6,5-4.12,8.61-6.56t6.24-2.45c.91,0,1.37.63,1.37,1.89a6.3,6.3,0,0,1-1.29,3.66,18.06,18.06,0,0,1-4.2,3.94q-3.12,2.37-3.12,3.37a1,1,0,0,0,.38.74,1.19,1.19,0,0,0,.78.34,7.43,7.43,0,0,0,3.7-1.54,50.34,50.34,0,0,0,5-3.93q2.72-2.39,4.4-3.82v.68q-2.44,2.28-4.76,4.26a40.48,40.48,0,0,1-4.63,3.45,7.7,7.7,0,0,1-3.82,1.46,1.52,1.52,0,0,1-1.38-.64,2.39,2.39,0,0,1-.42-1.32,6.6,6.6,0,0,1,1.2-3.43,16.72,16.72,0,0,1,3.32-3.7,23.91,23.91,0,0,0,3.38-3.46c.63-.87.45-1.31-.54-1.31-1.25,0-3.15.85-5.68,2.55a77.12,77.12,0,0,0-7.13,5.36q-3.31,2.82-6.29,5.55h-3.12l5.33-6q5.83-6.53,5.84-7.12c0-.27-.16-.41-.48-.41Q234.32,362.33,227.7,368.06Z" transform="translate(-7.9)"/><path class="cls-2" d="M254.61,381l6-7.52a10.06,10.06,0,0,0-1.12.72c-1.93,1.3-3.44,2-4.53,2q-2.81,0-2.8-3.69a7.18,7.18,0,0,1,1.38-4.2,12.86,12.86,0,0,1,3.54-3.38,19.7,19.7,0,0,1,4.49-2.21,13.46,13.46,0,0,1,4.28-.78c1.6,0,2.4.58,2.4,1.73a5.25,5.25,0,0,1-.32,1.48l2.77-3.21H274l-14.9,17a52.21,52.21,0,0,0,7.79-4.78c2.68-2,5.91-4.53,9.67-7.71v.68q-3.88,3.36-6.64,5.54a66.06,66.06,0,0,1-5.69,4,52,52,0,0,1-6.05,3.28c-3.41,3.74-6.28,6.76-8.58,9.07a73.9,73.9,0,0,1-5.77,5.31,20.38,20.38,0,0,1-3.86,2.56,7,7,0,0,1-2.93.72,2.7,2.7,0,0,1-1.92-.68,2.28,2.28,0,0,1-.72-1.72,6,6,0,0,1,1.68-3.69,20.71,20.71,0,0,1,4.81-4,47,47,0,0,1,7.28-3.7l5.85-2.49Zm-.76.88q-7.46,3.21-11,5.07a22.23,22.23,0,0,0-5.89,4.38c-1.33,1.5-2,2.78-2,3.85a1.6,1.6,0,0,0,.6,1.32,2.42,2.42,0,0,0,1.56.48,7.88,7.88,0,0,0,4.31-1.64,36.81,36.81,0,0,0,5.7-5.25Q252.13,384.32,253.85,381.91Zm13.81-18a1.21,1.21,0,0,0-.54-1,2.22,2.22,0,0,0-1.3-.38c-1.49,0-3.22.77-5.18,2.29a25.87,25.87,0,0,0-5.11,5.24c-1.44,2-2.16,3.43-2.16,4.37a1.1,1.1,0,0,0,.5.86,1.74,1.74,0,0,0,1.06.38q1.6,0,4.69-2.28a34.87,34.87,0,0,0,5.56-5.15Q267.65,365.34,267.66,363.9Z" transform="translate(-7.9)"/><path class="cls-2" d="M159.6,396.91l.64.08a14.68,14.68,0,0,1-2.3,7.45,31,31,0,0,1-5.87,7.12,33.68,33.68,0,0,1-7.49,5.25,15.7,15.7,0,0,1-7,2,5.08,5.08,0,0,1-3.87-1.46,5.62,5.62,0,0,1-1.38-4,12.91,12.91,0,0,1,2.6-7.41,26.9,26.9,0,0,1,7.09-6.75,39.21,39.21,0,0,1,10.37-4.84,40.77,40.77,0,0,1,12.17-1.82,29,29,0,0,1,4.91.36,15.72,15.72,0,0,1,3.78,1.14,18.48,18.48,0,0,1,3.77,2.42,40,40,0,0,1,4.24-2.36,26.08,26.08,0,0,1,3.88-1.56l.48.64a25.71,25.71,0,0,0-4.16,1.72c-1.6.8-2.88,1.51-3.84,2.12a7.45,7.45,0,0,1,1.66,2.8,12.5,12.5,0,0,1,.38,3.29,9.73,9.73,0,0,1-1.14,4.68,12.83,12.83,0,0,1-3.47,4,29,29,0,0,1-6.16,3.57,12.17,12.17,0,0,1,1.22,2.78,11.21,11.21,0,0,1,.34,2.94,13,13,0,0,1-1.68,6.21,20.91,20.91,0,0,1-4.45,5.63,22.93,22.93,0,0,1-6.24,4,17.22,17.22,0,0,1-6.89,1.52q-3.76,0-3.76-3.16a8.74,8.74,0,0,1,1.9-5,20,20,0,0,1,5.06-4.82,21.83,21.83,0,0,1,6.57-3.09l.16.57a23.41,23.41,0,0,0-8.69,4.84,18.3,18.3,0,0,0-3.26,4,7.4,7.4,0,0,0-1.18,3.67c0,1.63,1.09,2.44,3.28,2.44a11.77,11.77,0,0,0,6.67-2.18,23.41,23.41,0,0,0,5.7-5.55,32.12,32.12,0,0,0,3.87-6.64,14.7,14.7,0,0,0,1.38-5.41,6.14,6.14,0,0,0-.48-2.44,8.4,8.4,0,0,1-4.09,1,3.5,3.5,0,0,1-2.3-.58,2,2,0,0,1-.66-1.58,2.21,2.21,0,0,1,.66-1.6,2.52,2.52,0,0,1,1.9-.69q2.37,0,4.57,2.57a20.37,20.37,0,0,0,4.8-3.79,19.26,19.26,0,0,0,3.53-5,11.76,11.76,0,0,0,1.28-5,4.85,4.85,0,0,0-1.08-3.52,45.14,45.14,0,0,0-8.75,6.63,73.84,73.84,0,0,0-9.87,12,60.8,60.8,0,0,1-4.69,6.36q-2,2.25-5,5.05a61.28,61.28,0,0,1-6.37,5.2,35,35,0,0,1-5.88,3.43,27.16,27.16,0,0,1-5.51,1.78,29.14,29.14,0,0,1-5.78.56q-9,0-9-4.56a2.74,2.74,0,0,1,.56-1.81,1.91,1.91,0,0,1,1.56-.68,1.31,1.31,0,0,1,1,.44,1.49,1.49,0,0,1,.4,1,1.12,1.12,0,0,1-.44.89,1.39,1.39,0,0,1-.88.36,1.46,1.46,0,0,1-1.24-.68.26.26,0,0,0-.24-.16c-.11,0-.16.25-.16.76,0,1.14.71,2.07,2.14,2.78a13.93,13.93,0,0,0,6.06,1.06,24.36,24.36,0,0,0,7.33-1,20.73,20.73,0,0,0,6.15-3.18,54.15,54.15,0,0,0,6.7-6.21c.57-.61,1.46-1.64,2.69-3.06l4.58-5.37q2.75-3.23,4.93-5.7a38.63,38.63,0,0,1,3.06-3.25l2.44-2.32q5.73-5.37,7.69-7a53.08,53.08,0,0,1,5.85-3.92q-4.33-3.76-11.66-3.76A40.2,40.2,0,0,0,152.29,395a37.15,37.15,0,0,0-10.13,4.92,26.18,26.18,0,0,0-6.72,6.63,12.19,12.19,0,0,0-2.43,6.75,5.11,5.11,0,0,0,1.22,3.6,4.41,4.41,0,0,0,3.39,1.32,15.08,15.08,0,0,0,6.68-2,34.24,34.24,0,0,0,7.33-5.13,30.44,30.44,0,0,0,5.73-6.86A14.15,14.15,0,0,0,159.6,396.91ZM168,415a5,5,0,0,0-4.09-2.24,1.9,1.9,0,0,0-1.36.54,1.71,1.71,0,0,0-.56,1.26c0,1.07.8,1.56,2.4,1.48a7.13,7.13,0,0,0,1.72-.3A16.5,16.5,0,0,0,168,415Z" transform="translate(-7.9)"/><path class="cls-2" d="M190,426.42v.68a6.47,6.47,0,0,1-5,2.68l-.56-.08-.64-.08q-6.41,6.64-11.09,6.65a3.07,3.07,0,0,1-2.74-1.68,4,4,0,0,1-.38-1.77,7.77,7.77,0,0,1,2.36-5.24,18.87,18.87,0,0,1,5.71-4.18,13.66,13.66,0,0,1,5.86-1.63c1.82,0,2.72.84,2.72,2.53a8.54,8.54,0,0,1-2,4.76,2.3,2.3,0,0,0,.88.16C186.79,429.22,188.4,428.29,190,426.42Zm-6.37-4.09c-1.49,0-3.21.85-5.14,2.55a37.14,37.14,0,0,0-5.21,5.58q-2.29,3-2.3,3.77a1.26,1.26,0,0,0,.58,1.06,2.43,2.43,0,0,0,1.46.42,9.45,9.45,0,0,0,5.11-2.1,25.82,25.82,0,0,0,5.26-5q2.28-2.86,2.28-4.5a1.61,1.61,0,0,0-.58-1.3A2.11,2.11,0,0,0,183.58,422.33Z" transform="translate(-7.9)"/><path class="cls-2" d="M207,426.42v.68a6.45,6.45,0,0,1-5,2.68l-.56-.08-.64-.08q-6.41,6.64-11.09,6.65a3.05,3.05,0,0,1-1.62-.46,3,3,0,0,1-1.12-1.22,3.85,3.85,0,0,1-.39-1.77,7.74,7.74,0,0,1,2.37-5.24,18.7,18.7,0,0,1,5.7-4.18,13.73,13.73,0,0,1,5.87-1.63c1.81,0,2.72.84,2.72,2.53a8.54,8.54,0,0,1-2,4.76,2.3,2.3,0,0,0,.88.16C203.84,429.22,205.46,428.29,207,426.42Zm-6.36-4.09c-1.5,0-3.21.85-5.15,2.55a37.08,37.08,0,0,0-5.2,5.58c-1.54,2-2.3,3.29-2.3,3.77a1.26,1.26,0,0,0,.58,1.06,2.4,2.4,0,0,0,1.46.42,9.45,9.45,0,0,0,5.1-2.1,25.62,25.62,0,0,0,5.27-5q2.28-2.86,2.28-4.5a1.61,1.61,0,0,0-.58-1.3A2.13,2.13,0,0,0,200.64,422.33Z" transform="translate(-7.9)"/><path class="cls-2" d="M217.17,417.81l7-6a62.76,62.76,0,0,0,5.47-5.28q2.85-3.09,4.94-5.65h3.37l-31.24,35h-3.36L224,412.73c-.85.77-1.75,1.56-2.68,2.36l-2.44,2.1-2.73,2.34-4.8,4.13-4,3.36-1.29,1v-.64l4.25-3.68S212.56,421.76,217.17,417.81Zm16.26,8.61v.68l-2,1.72a63.89,63.89,0,0,1-7.47,5.81,9.57,9.57,0,0,1-4.94,1.64c-1.26,0-1.89-.71-1.89-2.12a7.1,7.1,0,0,1,1.89-4.37,2.91,2.91,0,0,0,.84-1.72.42.42,0,0,0-.48-.48l-.68.08c-.38,0-.62.08-.72.08-1.15,0-1.73-.21-1.73-.64s.35-.52,1-.52a9,9,0,0,1,2.33.52,16.91,16.91,0,0,0,3.92-2.56,16.06,16.06,0,0,1,3.22-2.18,6.5,6.5,0,0,1,2.75-.59c1.49,0,2.24.43,2.24,1.29a.82.82,0,0,1-.92.92c-.7,0-1-.31-1-.92l.16-.73c0-.1-.08-.16-.24-.16-1.34,0-2.87.79-4.61,2.37a17,17,0,0,1-4.84,2.88,4.21,4.21,0,0,1,.84,2.44,4.74,4.74,0,0,1-1.56,3.37c-.83,1-1.24,1.56-1.24,1.8,0,.45.29.68.88.68q2,0,5.18-2.12A95.91,95.91,0,0,0,233.43,426.42Z" transform="translate(-7.9)"/><path class="cls-2" d="M257.69,403.08l2-2.17h3.08l-25.23,28.23q-4.52,5-4.52,5.81c0,.5.27.76.8.76a6.12,6.12,0,0,0,3.2-1.18,43.75,43.75,0,0,0,4.87-3.95q3.06-2.76,4.5-4v.68q-5.44,5-8,7a7.75,7.75,0,0,1-4.61,2,1.59,1.59,0,0,1-1.22-.54,1.81,1.81,0,0,1-.5-1.26,8.55,8.55,0,0,1,2-4.77,75.13,75.13,0,0,1,5.41-6.36q.24-.33,1.44-1.71c.8-.92,1.57-1.83,2.32-2.74Q240.52,421,232.63,428v-.64L244,417.49Q246.08,415.74,257.69,403.08Z" transform="translate(-7.9)"/><path class="cls-2" d="M262.54,426.42v.68a49.4,49.4,0,0,1-8.21,6.83,14,14,0,0,1-7.53,2.34q-3.36,0-3.36-3.85a7.72,7.72,0,0,1,2.42-5.62,16.52,16.52,0,0,1,5.69-3.72,15.12,15.12,0,0,1,5.3-1.31,2.78,2.78,0,0,1,1.82.54,1.77,1.77,0,0,1,.66,1.43,3.19,3.19,0,0,1-1.48,2.5,12,12,0,0,1-4.12,1.88,26.65,26.65,0,0,1-6.21.86c-2,2.3-3,4-3,5.25a1.24,1.24,0,0,0,.66,1.06,3,3,0,0,0,1.66.42Q253.25,435.71,262.54,426.42Zm-14.22,1.8a16.33,16.33,0,0,0,5.61-.84,9.65,9.65,0,0,0,3.46-2c.79-.78,1.18-1.4,1.18-1.88,0-.78-.45-1.17-1.36-1.17a8,8,0,0,0-4.2,1.59A22.26,22.26,0,0,0,248.32,428.22Z" transform="translate(-7.9)"/><path class="cls-2" d="M275.27,416.17l6.65-7.53h3.44l-6.65,7.53h5.09l-.44.68h-5.17l-9.73,11c-1.06,1.17-2.25,2.59-3.54,4.24a16.54,16.54,0,0,0-1.94,2.73c0,.56.29.84.88.84q3.28,0,14.09-9.29v.68L275.83,429q-8.28,7.29-12.05,7.29a1.93,1.93,0,0,1-1.44-.52,1.65,1.65,0,0,1-.52-1.2q0-1.6,2.26-5.33T273,418.89a116.74,116.74,0,0,0-11.37,9.17v-.64c1.63-1.55,3.64-3.3,6-5.27s4.75-3.73,7.05-5.3h-2.92l.56-.68Z" transform="translate(-7.9)"/><path class="cls-3" d="M175.17,295.77h-.48a33.83,33.83,0,0,1,4.93-8.57,33.18,33.18,0,0,1,6.26-6.15,27.71,27.71,0,0,1,6.29-3.54,14.8,14.8,0,0,1,5.07-1.16,4.08,4.08,0,0,1,3.18,1.3,5.11,5.11,0,0,1,1.18,3.54q0,3.88-3.44,10.17a70.92,70.92,0,0,1-9,12.58,60.26,60.26,0,0,1-11.65,10.37q-6.14,4.08-11.29,4.08a7,7,0,0,1-5-1.84,7.3,7.3,0,0,1-1.94-5.53,20.38,20.38,0,0,1,2.08-8.63,40.27,40.27,0,0,1,6.29-9.28,80.6,80.6,0,0,1,10.25-9.71,61.65,61.65,0,0,1,12.91-8.15,28.28,28.28,0,0,1,11.59-2.74,9.18,9.18,0,0,1,5.43,1.42,4.54,4.54,0,0,1,2,3.9,5.67,5.67,0,0,1-1.76,4.38,12,12,0,0,1-5.13,2.51l.08-.6a8.77,8.77,0,0,0,4.67-2.43,5.62,5.62,0,0,0,1.54-3.86,4,4,0,0,0-1.88-3.52,9.3,9.3,0,0,0-5.17-1.24,27.74,27.74,0,0,0-12.25,3.1A42.89,42.89,0,0,0,178.06,285a90.11,90.11,0,0,0-6.29,7.16,95.54,95.54,0,0,0-5.56,7.79,56.76,56.76,0,0,0-4,7.27,14.18,14.18,0,0,0-1.5,5.56,5,5,0,0,0,1.42,3.59,5.12,5.12,0,0,0,3.9,1.5q5,0,11-4a62.08,62.08,0,0,0,11.57-10.23,70.61,70.61,0,0,0,9-12.4q3.45-6.18,3.46-10a4.85,4.85,0,0,0-1-3.18,3.37,3.37,0,0,0-2.74-1.18,14.46,14.46,0,0,0-5.17,1.26,28.09,28.09,0,0,0-6.25,3.6,34.41,34.41,0,0,0-6,6A31.45,31.45,0,0,0,175.17,295.77Z" transform="translate(-7.9)"/><path class="cls-3" d="M192.83,308.06v-.64a39.07,39.07,0,0,1,7.37-5.33h3.36l-8.93,10.17c-1.49,1.71-2.24,2.7-2.24,3s.23.4.68.4q2.2,0,7.21-3.91t11.09-9.63h3.16l-9.33,10.65c-.11.14-.32.39-.66.77a5.81,5.81,0,0,0-.76,1,1.3,1.3,0,0,0-.22.78c0,.26.21.4.64.4,1,0,2.84-.89,5.57-2.66a48.22,48.22,0,0,0,8-6.63v.68a51.9,51.9,0,0,1-7.91,6.57q-3.95,2.59-5.79,2.6a1.24,1.24,0,0,1-1.4-1.4,6.92,6.92,0,0,1,1.22-3.33,48,48,0,0,1,3.79-5.12l.76-.88-1.49,1.32q-4.84,4.32-8.34,6.87c-2.34,1.69-4.17,2.54-5.51,2.54-1,0-1.48-.58-1.48-1.72a5.68,5.68,0,0,1,.66-2.47A17.38,17.38,0,0,1,194,309.3q1.11-1.44,2.34-2.82l2.53-2.82-2,1.2A49.94,49.94,0,0,0,192.83,308.06Z" transform="translate(-7.9)"/><path class="cls-3" d="M216.77,307.42c1.21-1,2.4-1.94,3.59-2.92s2.37-1.93,3.54-2.81a2.68,2.68,0,0,1,.32-2.22,1.86,1.86,0,0,1,1.56-1,1.47,1.47,0,0,1,.92.3.89.89,0,0,1,.4.74,1.08,1.08,0,0,1-.34.84,1.12,1.12,0,0,1-.82.32,2.29,2.29,0,0,1-1.32-.8,1.46,1.46,0,0,0-.24.88,1.11,1.11,0,0,0,.38.9,1.31,1.31,0,0,0,.94.42,5.25,5.25,0,0,0,1.08-.16c.54-.1.86-.16,1-.16s.39.2.54.6a4.47,4.47,0,0,1,.22,1.45,3.41,3.41,0,0,1-1,1.9c-.65.79-1.78,2.07-3.38,3.86s-2.71,3.06-3.32,3.81a3.19,3.19,0,0,0-.92,1.72c0,.4.26.6.8.6.75,0,2.34-.88,4.78-2.62s5.28-4,8.51-6.67v.68q-10.77,9.16-13.61,9.17-1.08,0-1.08-1.32a8.65,8.65,0,0,1,.74-3.57,14.93,14.93,0,0,1,2.54-3.72l4.68-5.17a4.78,4.78,0,0,1-1.9.29c-.7,0-1.14-.23-1.3-.61q-5.33,4.41-7.29,5.89Z" transform="translate(-7.9)"/><path class="cls-3" d="M158.12,356.09q2.44-2.56,6.92-7.19t8.55-8.13a51.7,51.7,0,0,1,8.29-5.88,16.12,16.12,0,0,1,7.83-2.38,6,6,0,0,1,3.64,1,3.22,3.22,0,0,1,1.36,2.76,2.29,2.29,0,0,1-.44,1.48,1.37,1.37,0,0,1-1.12.56c-.88,0-1.32-.41-1.32-1.24a1.09,1.09,0,0,1,1.24-1.24,1.32,1.32,0,0,1,.44.1,1.41,1.41,0,0,0,.36.1c.16,0,.24-.15.24-.44a2.09,2.09,0,0,0-1.18-1.8,6,6,0,0,0-3.14-.72,16,16,0,0,0-7.93,2.52,48.7,48.7,0,0,0-7.85,5.66q-3.52,3.15-7,6.81c-2.34,2.44-4.05,4.25-5.15,5.43q-3,3-7.57,7.7t-8,8a74.15,74.15,0,0,1-6.65,5.65,31.07,31.07,0,0,1-6.15,3.64l-.32-.48a53.36,53.36,0,0,0,7.05-9.25q8.13-14.17,14.73-21.74l2.65-3c1.78-2,3.4-3.81,4.84-5.33,1.68-1.68,2.42-2.52,2.2-2.52a19.46,19.46,0,0,0-3.14,2.66q-2.86,2.67-6.59,6.39t-6.4,6.68l-1.56,1.73c-1.93,2.19-4.07,4.53-6.45,7s-4.79,4.91-7.25,7.25a89.7,89.7,0,0,1-7.4,6.35,32.94,32.94,0,0,1-7,4.2l-.32-.48a35.58,35.58,0,0,0,5.14-5.87q2.55-3.54,6-9.14l2.12-3.45.56-1A106,106,0,0,1,145.67,342l2.88-2.88a12.33,12.33,0,0,1-6.89,2.64q-3.28,0-3.28-2.88c0-.08.05-.48.16-1.2s.16-1.16.16-1.32a2.37,2.37,0,0,0-.64-1.42,4.93,4.93,0,0,0-1.92-1.32,8,8,0,0,0-3.09-.54,14.42,14.42,0,0,0-7.14,1.76,13.46,13.46,0,0,0-4.87,4.3,8.66,8.66,0,0,0-1.68,4.67,4.29,4.29,0,0,0,1.58,3.42,6.09,6.09,0,0,0,4.06,1.34,11.57,11.57,0,0,0,6-1.64,23.1,23.1,0,0,0,5.55-4.93l.24.41q-5.08,6.72-11.9,6.72a6.66,6.66,0,0,1-4.48-1.44,4.84,4.84,0,0,1-1.68-3.88,9.2,9.2,0,0,1,1.8-5.11,14,14,0,0,1,5-4.42,15.44,15.44,0,0,1,7.52-1.76,8.6,8.6,0,0,1,5.17,1.42,4.28,4.28,0,0,1,2,3.62c0,.13,0,.47-.08,1s-.08.84-.08.92c0,1.15.65,1.72,2,1.72a9.54,9.54,0,0,0,5.79-2.24,55.13,55.13,0,0,0,5.62-4.92l.8-.82a4.13,4.13,0,0,1,.58-.52,1,1,0,0,1,.58-.18c.22,0,.32.05.32.16s-.6.81-1.8,1.88a50.76,50.76,0,0,0-7.34,7.77,103.46,103.46,0,0,0-6.43,9.68q-2.69,4.49-4.1,6.63c-1,1.43-2.51,3.44-4.67,6.05s-5.23,6.08-9.21,10.43L120.56,377a56.46,56.46,0,0,0,6.17-4.21q3-2.31,5.06-4.28t4.47-4.34q2.36-2.39,6.36-6.71l2.88-3.12q3.38-3.69,6.53-7t5.85-6c1.79-1.77,3.57-3.42,5.36-4.94a47.24,47.24,0,0,1,5-3.8l.52.4q-6.88,7.72-8.29,9.65-.53.75-2.4,3.68l-3.33,5.14q-1.44,2.22-3.4,5.15-5.37,7.77-7.95,11t-7.3,8.23L135,377a41.93,41.93,0,0,0,6-4.21q3.4-2.76,6.55-5.8t6-6Q156.4,357.94,158.12,356.09Z" transform="translate(-7.9)"/><path class="cls-3" d="M173.37,366.42v.68a49,49,0,0,1-8.21,6.83,14,14,0,0,1-7.52,2.34q-3.37,0-3.37-3.85a7.69,7.69,0,0,1,2.43-5.62,16.48,16.48,0,0,1,5.68-3.72,15.21,15.21,0,0,1,5.31-1.31,2.8,2.8,0,0,1,1.82.54,1.77,1.77,0,0,1,.66,1.43,3.22,3.22,0,0,1-1.48,2.5,12.06,12.06,0,0,1-4.13,1.88,26.63,26.63,0,0,1-6.2.86q-3,3.45-3.05,5.25a1.23,1.23,0,0,0,.67,1.06,3,3,0,0,0,1.66.42Q164.08,375.71,173.37,366.42Zm-14.21,1.8a16.31,16.31,0,0,0,5.6-.84,9.7,9.7,0,0,0,3.47-2c.78-.78,1.18-1.4,1.18-1.88,0-.78-.46-1.17-1.36-1.17a8,8,0,0,0-4.21,1.59A22,22,0,0,0,159.16,368.22Z" transform="translate(-7.9)"/><path class="cls-3" d="M186.1,365.62l21.63-24.71H211L185.78,369.7c-.56.64-1.17,1.36-1.84,2.16s-1.15,1.43-1.46,1.89a4.44,4.44,0,0,0-.64,1.32c-.12.42.07.64.58.64.67,0,2.31-1,4.93-3.1s5.07-4.14,7.36-6.19v.68q-4.72,4.13-7.94,6.65t-4.71,2.52c-.69,0-1-.41-1-1.24a11,11,0,0,1,1.12-4.17.18.18,0,0,0-.06-.1s-.07-.06-.1-.06q-5.56,5.57-8.77,5.57-2.28,0-2.28-3.77a8,8,0,0,1,2.24-5.44,15.49,15.49,0,0,1,5.53-3.88,15.06,15.06,0,0,1,5.84-1.41c1.36,0,2,.58,2,1.73A4.54,4.54,0,0,1,186.1,365.62Zm-1.72-3.29q-1.63,0-4.68,2.31a30.56,30.56,0,0,0-5.39,5.2c-1.56,1.94-2.34,3.45-2.34,4.55,0,.88.41,1.32,1.24,1.32q1.77,0,4.87-2.3a32.44,32.44,0,0,0,5.52-5.19c1.62-1.92,2.42-3.39,2.42-4.4S185.48,362.33,184.38,362.33Z" transform="translate(-7.9)"/><path class="cls-3" d="M207.41,365.62,229,340.91h3.28L207.08,369.7c-.56.64-1.17,1.36-1.84,2.16s-1.15,1.43-1.46,1.89a4.44,4.44,0,0,0-.64,1.32c-.12.42.07.64.58.64.67,0,2.31-1,4.93-3.1s5.07-4.14,7.36-6.19v.68q-4.72,4.13-7.94,6.65t-4.71,2.52c-.69,0-1-.41-1-1.24a11,11,0,0,1,1.12-4.17.18.18,0,0,0-.06-.1s-.07-.06-.1-.06q-5.57,5.57-8.77,5.57-2.28,0-2.28-3.77a8,8,0,0,1,2.24-5.44,15.49,15.49,0,0,1,5.53-3.88,15.06,15.06,0,0,1,5.84-1.41c1.36,0,2,.58,2,1.73A4.54,4.54,0,0,1,207.41,365.62Zm-1.73-3.29q-1.63,0-4.68,2.31a30.56,30.56,0,0,0-5.39,5.2c-1.56,1.94-2.34,3.45-2.34,4.55,0,.88.42,1.32,1.24,1.32q1.77,0,4.87-2.3a32.81,32.81,0,0,0,5.52-5.19q2.43-2.88,2.43-4.4C207.33,362.83,206.78,362.33,205.68,362.33Z" transform="translate(-7.9)"/><path class="cls-3" d="M215.09,368l-.08-.64a47.2,47.2,0,0,1,7.13-5.25h3.6l-9.45,10.57a5.83,5.83,0,0,0-1.28,2.09q-.27,1,.48,1,2,0,6-3a73.56,73.56,0,0,0,7.33-6.24v.68a80.76,80.76,0,0,1-7.49,6.41c-2.4,1.78-4.37,2.68-5.89,2.68-.88,0-1.32-.47-1.32-1.4q0-4.17,6.49-10.65c.24-.24.46-.48.66-.7s.39-.44.58-.62A39.62,39.62,0,0,0,215.09,368ZM229,353.65c.58,0,.88.36.88,1.08a1.51,1.51,0,0,1-.36,1,1.18,1.18,0,0,1-.92.4c-.72,0-1.09-.32-1.09-1a1.55,1.55,0,0,1,.45-1.06A1.32,1.32,0,0,1,229,353.65Z" transform="translate(-7.9)"/><path class="cls-3" d="M227.7,368.06v-.64q6.09-5.64,8.53-5.65c.91,0,1.36.58,1.36,1.73a5,5,0,0,1-.84,2.68q-.84,1.32-3.4,4.6,5-4.12,8.61-6.56t6.24-2.45c.91,0,1.37.63,1.37,1.89a6.3,6.3,0,0,1-1.29,3.66,18.06,18.06,0,0,1-4.2,3.94q-3.12,2.37-3.12,3.37a1,1,0,0,0,.38.74,1.19,1.19,0,0,0,.78.34,7.43,7.43,0,0,0,3.7-1.54,50.34,50.34,0,0,0,5-3.93q2.72-2.39,4.4-3.82v.68q-2.44,2.28-4.76,4.26a40.48,40.48,0,0,1-4.63,3.45,7.7,7.7,0,0,1-3.82,1.46,1.52,1.52,0,0,1-1.38-.64,2.39,2.39,0,0,1-.42-1.32,6.6,6.6,0,0,1,1.2-3.43,16.72,16.72,0,0,1,3.32-3.7,23.91,23.91,0,0,0,3.38-3.46c.63-.87.45-1.31-.54-1.31-1.25,0-3.15.85-5.68,2.55a77.12,77.12,0,0,0-7.13,5.36q-3.31,2.82-6.29,5.55h-3.12l5.33-6q5.83-6.53,5.84-7.12c0-.27-.16-.41-.48-.41Q234.32,362.33,227.7,368.06Z" transform="translate(-7.9)"/><path class="cls-3" d="M254.61,381l6-7.52a10.06,10.06,0,0,0-1.12.72c-1.93,1.3-3.44,2-4.53,2q-2.81,0-2.8-3.69a7.18,7.18,0,0,1,1.38-4.2,12.86,12.86,0,0,1,3.54-3.38,19.7,19.7,0,0,1,4.49-2.21,13.46,13.46,0,0,1,4.28-.78c1.6,0,2.4.58,2.4,1.73a5.25,5.25,0,0,1-.32,1.48l2.77-3.21H274l-14.9,17a52.21,52.21,0,0,0,7.79-4.78c2.68-2,5.91-4.53,9.67-7.71v.68q-3.88,3.36-6.64,5.54a66.06,66.06,0,0,1-5.69,4,52,52,0,0,1-6.05,3.28c-3.41,3.74-6.28,6.76-8.58,9.07a73.9,73.9,0,0,1-5.77,5.31,20.38,20.38,0,0,1-3.86,2.56,7,7,0,0,1-2.93.72,2.7,2.7,0,0,1-1.92-.68,2.28,2.28,0,0,1-.72-1.72,6,6,0,0,1,1.68-3.69,20.71,20.71,0,0,1,4.81-4,47,47,0,0,1,7.28-3.7l5.85-2.49Zm-.76.88q-7.46,3.21-11,5.07a22.23,22.23,0,0,0-5.89,4.38c-1.33,1.5-2,2.78-2,3.85a1.6,1.6,0,0,0,.6,1.32,2.42,2.42,0,0,0,1.56.48,7.88,7.88,0,0,0,4.31-1.64,36.81,36.81,0,0,0,5.7-5.25Q252.13,384.32,253.85,381.91Zm13.81-18a1.21,1.21,0,0,0-.54-1,2.22,2.22,0,0,0-1.3-.38c-1.49,0-3.22.77-5.18,2.29a25.87,25.87,0,0,0-5.11,5.24c-1.44,2-2.16,3.43-2.16,4.37a1.1,1.1,0,0,0,.5.86,1.74,1.74,0,0,0,1.06.38q1.6,0,4.69-2.28a34.87,34.87,0,0,0,5.56-5.15Q267.65,365.34,267.66,363.9Z" transform="translate(-7.9)"/><path class="cls-3" d="M159.6,396.91l.64.08a14.68,14.68,0,0,1-2.3,7.45,31,31,0,0,1-5.87,7.12,33.68,33.68,0,0,1-7.49,5.25,15.7,15.7,0,0,1-7,2,5.08,5.08,0,0,1-3.87-1.46,5.62,5.62,0,0,1-1.38-4,12.91,12.91,0,0,1,2.6-7.41,26.9,26.9,0,0,1,7.09-6.75,39.21,39.21,0,0,1,10.37-4.84,40.77,40.77,0,0,1,12.17-1.82,29,29,0,0,1,4.91.36,15.72,15.72,0,0,1,3.78,1.14,18.48,18.48,0,0,1,3.77,2.42,40,40,0,0,1,4.24-2.36,26.08,26.08,0,0,1,3.88-1.56l.48.64a25.71,25.71,0,0,0-4.16,1.72c-1.6.8-2.88,1.51-3.84,2.12a7.45,7.45,0,0,1,1.66,2.8,12.5,12.5,0,0,1,.38,3.29,9.73,9.73,0,0,1-1.14,4.68,12.83,12.83,0,0,1-3.47,4,29,29,0,0,1-6.16,3.57,12.17,12.17,0,0,1,1.22,2.78,11.21,11.21,0,0,1,.34,2.94,13,13,0,0,1-1.68,6.21,20.91,20.91,0,0,1-4.45,5.63,22.93,22.93,0,0,1-6.24,4,17.22,17.22,0,0,1-6.89,1.52q-3.76,0-3.76-3.16a8.74,8.74,0,0,1,1.9-5,20,20,0,0,1,5.06-4.82,21.83,21.83,0,0,1,6.57-3.09l.16.57a23.41,23.41,0,0,0-8.69,4.84,18.3,18.3,0,0,0-3.26,4,7.4,7.4,0,0,0-1.18,3.67c0,1.63,1.09,2.44,3.28,2.44a11.77,11.77,0,0,0,6.67-2.18,23.41,23.41,0,0,0,5.7-5.55,32.12,32.12,0,0,0,3.87-6.64,14.7,14.7,0,0,0,1.38-5.41,6.14,6.14,0,0,0-.48-2.44,8.4,8.4,0,0,1-4.09,1,3.5,3.5,0,0,1-2.3-.58,2,2,0,0,1-.66-1.58,2.21,2.21,0,0,1,.66-1.6,2.52,2.52,0,0,1,1.9-.69q2.37,0,4.57,2.57a20.37,20.37,0,0,0,4.8-3.79,19.26,19.26,0,0,0,3.53-5,11.76,11.76,0,0,0,1.28-5,4.85,4.85,0,0,0-1.08-3.52,45.14,45.14,0,0,0-8.75,6.63,73.84,73.84,0,0,0-9.87,12,60.8,60.8,0,0,1-4.69,6.36q-2,2.25-5,5.05a61.28,61.28,0,0,1-6.37,5.2,35,35,0,0,1-5.88,3.43,27.16,27.16,0,0,1-5.51,1.78,29.14,29.14,0,0,1-5.78.56q-9,0-9-4.56a2.74,2.74,0,0,1,.56-1.81,1.91,1.91,0,0,1,1.56-.68,1.31,1.31,0,0,1,1,.44,1.49,1.49,0,0,1,.4,1,1.12,1.12,0,0,1-.44.89,1.39,1.39,0,0,1-.88.36,1.46,1.46,0,0,1-1.24-.68.26.26,0,0,0-.24-.16c-.11,0-.16.25-.16.76,0,1.14.71,2.07,2.14,2.78a13.93,13.93,0,0,0,6.06,1.06,24.36,24.36,0,0,0,7.33-1,20.73,20.73,0,0,0,6.15-3.18,54.15,54.15,0,0,0,6.7-6.21c.57-.61,1.46-1.64,2.69-3.06l4.58-5.37q2.75-3.23,4.93-5.7a38.63,38.63,0,0,1,3.06-3.25l2.44-2.32q5.73-5.37,7.69-7a53.08,53.08,0,0,1,5.85-3.92q-4.33-3.76-11.66-3.76A40.2,40.2,0,0,0,152.29,395a37.15,37.15,0,0,0-10.13,4.92,26.18,26.18,0,0,0-6.72,6.63,12.19,12.19,0,0,0-2.43,6.75,5.11,5.11,0,0,0,1.22,3.6,4.41,4.41,0,0,0,3.39,1.32,15.08,15.08,0,0,0,6.68-2,34.24,34.24,0,0,0,7.33-5.13,30.44,30.44,0,0,0,5.73-6.86A14.15,14.15,0,0,0,159.6,396.91ZM168,415a5,5,0,0,0-4.09-2.24,1.9,1.9,0,0,0-1.36.54,1.71,1.71,0,0,0-.56,1.26c0,1.07.8,1.56,2.4,1.48a7.13,7.13,0,0,0,1.72-.3A16.5,16.5,0,0,0,168,415Z" transform="translate(-7.9)"/><path class="cls-3" d="M190,426.42v.68a6.47,6.47,0,0,1-5,2.68l-.56-.08-.64-.08q-6.41,6.64-11.09,6.65a3.07,3.07,0,0,1-2.74-1.68,4,4,0,0,1-.38-1.77,7.77,7.77,0,0,1,2.36-5.24,18.87,18.87,0,0,1,5.71-4.18,13.66,13.66,0,0,1,5.86-1.63c1.82,0,2.72.84,2.72,2.53a8.54,8.54,0,0,1-2,4.76,2.3,2.3,0,0,0,.88.16C186.79,429.22,188.4,428.29,190,426.42Zm-6.37-4.09c-1.49,0-3.21.85-5.14,2.55a37.14,37.14,0,0,0-5.21,5.58q-2.29,3-2.3,3.77a1.26,1.26,0,0,0,.58,1.06,2.43,2.43,0,0,0,1.46.42,9.45,9.45,0,0,0,5.11-2.1,25.82,25.82,0,0,0,5.26-5q2.28-2.86,2.28-4.5a1.61,1.61,0,0,0-.58-1.3A2.11,2.11,0,0,0,183.58,422.33Z" transform="translate(-7.9)"/><path class="cls-3" d="M207,426.42v.68a6.45,6.45,0,0,1-5,2.68l-.56-.08-.64-.08q-6.41,6.64-11.09,6.65a3.05,3.05,0,0,1-1.62-.46,3,3,0,0,1-1.12-1.22,3.85,3.85,0,0,1-.39-1.77,7.74,7.74,0,0,1,2.37-5.24,18.7,18.7,0,0,1,5.7-4.18,13.73,13.73,0,0,1,5.87-1.63c1.81,0,2.72.84,2.72,2.53a8.54,8.54,0,0,1-2,4.76,2.3,2.3,0,0,0,.88.16C203.84,429.22,205.46,428.29,207,426.42Zm-6.36-4.09c-1.5,0-3.21.85-5.15,2.55a37.08,37.08,0,0,0-5.2,5.58c-1.54,2-2.3,3.29-2.3,3.77a1.26,1.26,0,0,0,.58,1.06,2.4,2.4,0,0,0,1.46.42,9.45,9.45,0,0,0,5.1-2.1,25.62,25.62,0,0,0,5.27-5q2.28-2.86,2.28-4.5a1.61,1.61,0,0,0-.58-1.3A2.13,2.13,0,0,0,200.64,422.33Z" transform="translate(-7.9)"/><path class="cls-3" d="M217.17,417.81l7-6a62.76,62.76,0,0,0,5.47-5.28q2.85-3.09,4.94-5.65h3.37l-31.24,35h-3.36L224,412.73c-.85.77-1.75,1.56-2.68,2.36l-2.44,2.1-2.73,2.34-4.8,4.13-4,3.36-1.29,1v-.64l4.25-3.68S212.56,421.76,217.17,417.81Zm16.26,8.61v.68l-2,1.72a63.89,63.89,0,0,1-7.47,5.81,9.57,9.57,0,0,1-4.94,1.64c-1.26,0-1.89-.71-1.89-2.12a7.1,7.1,0,0,1,1.89-4.37,2.91,2.91,0,0,0,.84-1.72.42.42,0,0,0-.48-.48l-.68.08c-.38,0-.62.08-.72.08-1.15,0-1.73-.21-1.73-.64s.35-.52,1-.52a9,9,0,0,1,2.33.52,16.91,16.91,0,0,0,3.92-2.56,16.06,16.06,0,0,1,3.22-2.18,6.5,6.5,0,0,1,2.75-.59c1.49,0,2.24.43,2.24,1.29a.82.82,0,0,1-.92.92c-.7,0-1-.31-1-.92l.16-.73c0-.1-.08-.16-.24-.16-1.34,0-2.87.79-4.61,2.37a17,17,0,0,1-4.84,2.88,4.21,4.21,0,0,1,.84,2.44,4.74,4.74,0,0,1-1.56,3.37c-.83,1-1.24,1.56-1.24,1.8,0,.45.29.68.88.68q2,0,5.18-2.12A95.91,95.91,0,0,0,233.43,426.42Z" transform="translate(-7.9)"/><path class="cls-3" d="M257.69,403.08l2-2.17h3.08l-25.23,28.23q-4.52,5-4.52,5.81c0,.5.27.76.8.76a6.12,6.12,0,0,0,3.2-1.18,43.75,43.75,0,0,0,4.87-3.95q3.06-2.76,4.5-4v.68q-5.44,5-8,7a7.75,7.75,0,0,1-4.61,2,1.59,1.59,0,0,1-1.22-.54,1.81,1.81,0,0,1-.5-1.26,8.55,8.55,0,0,1,2-4.77,75.13,75.13,0,0,1,5.41-6.36q.24-.33,1.44-1.71c.8-.92,1.57-1.83,2.32-2.74Q240.52,421,232.63,428v-.64L244,417.49Q246.08,415.74,257.69,403.08Z" transform="translate(-7.9)"/><path class="cls-3" d="M262.54,426.42v.68a49.4,49.4,0,0,1-8.21,6.83,14,14,0,0,1-7.53,2.34q-3.36,0-3.36-3.85a7.72,7.72,0,0,1,2.42-5.62,16.52,16.52,0,0,1,5.69-3.72,15.12,15.12,0,0,1,5.3-1.31,2.78,2.78,0,0,1,1.82.54,1.77,1.77,0,0,1,.66,1.43,3.19,3.19,0,0,1-1.48,2.5,12,12,0,0,1-4.12,1.88,26.65,26.65,0,0,1-6.21.86c-2,2.3-3,4-3,5.25a1.24,1.24,0,0,0,.66,1.06,3,3,0,0,0,1.66.42Q253.25,435.71,262.54,426.42Zm-14.22,1.8a16.33,16.33,0,0,0,5.61-.84,9.65,9.65,0,0,0,3.46-2c.79-.78,1.18-1.4,1.18-1.88,0-.78-.45-1.17-1.36-1.17a8,8,0,0,0-4.2,1.59A22.26,22.26,0,0,0,248.32,428.22Z" transform="translate(-7.9)"/><path class="cls-3" d="M275.27,416.17l6.65-7.53h3.44l-6.65,7.53h5.09l-.44.68h-5.17l-9.73,11c-1.06,1.17-2.25,2.59-3.54,4.24a16.54,16.54,0,0,0-1.94,2.73c0,.56.29.84.88.84q3.28,0,14.09-9.29v.68L275.83,429q-8.28,7.29-12.05,7.29a1.93,1.93,0,0,1-1.44-.52,1.65,1.65,0,0,1-.52-1.2q0-1.6,2.26-5.33T273,418.89a116.74,116.74,0,0,0-11.37,9.17v-.64c1.63-1.55,3.64-3.3,6-5.27s4.75-3.73,7.05-5.3h-2.92l.56-.68Z" transform="translate(-7.9)"/><path class="cls-4" d="M175.17,295.77h-.48a33.83,33.83,0,0,1,4.93-8.57,33.18,33.18,0,0,1,6.26-6.15,27.71,27.71,0,0,1,6.29-3.54,14.8,14.8,0,0,1,5.07-1.16,4.08,4.08,0,0,1,3.18,1.3,5.11,5.11,0,0,1,1.18,3.54q0,3.88-3.44,10.17a70.92,70.92,0,0,1-9,12.58,60.26,60.26,0,0,1-11.65,10.37q-6.14,4.08-11.29,4.08a7,7,0,0,1-5-1.84,7.3,7.3,0,0,1-1.94-5.53,20.38,20.38,0,0,1,2.08-8.63,40.27,40.27,0,0,1,6.29-9.28,80.6,80.6,0,0,1,10.25-9.71,61.65,61.65,0,0,1,12.91-8.15,28.28,28.28,0,0,1,11.59-2.74,9.18,9.18,0,0,1,5.43,1.42,4.54,4.54,0,0,1,2,3.9,5.67,5.67,0,0,1-1.76,4.38,12,12,0,0,1-5.13,2.51l.08-.6a8.77,8.77,0,0,0,4.67-2.43,5.62,5.62,0,0,0,1.54-3.86,4,4,0,0,0-1.88-3.52,9.3,9.3,0,0,0-5.17-1.24,27.74,27.74,0,0,0-12.25,3.1A42.89,42.89,0,0,0,178.06,285a90.11,90.11,0,0,0-6.29,7.16,95.54,95.54,0,0,0-5.56,7.79,56.76,56.76,0,0,0-4,7.27,14.18,14.18,0,0,0-1.5,5.56,5,5,0,0,0,1.42,3.59,5.12,5.12,0,0,0,3.9,1.5q5,0,11-4a62.08,62.08,0,0,0,11.57-10.23,70.61,70.61,0,0,0,9-12.4q3.45-6.18,3.46-10a4.85,4.85,0,0,0-1-3.18,3.37,3.37,0,0,0-2.74-1.18,14.46,14.46,0,0,0-5.17,1.26,28.09,28.09,0,0,0-6.25,3.6,34.41,34.41,0,0,0-6,6A31.45,31.45,0,0,0,175.17,295.77Z" transform="translate(-7.9)"/><path class="cls-4" d="M192.83,308.06v-.64a39.07,39.07,0,0,1,7.37-5.33h3.36l-8.93,10.17c-1.49,1.71-2.24,2.7-2.24,3s.23.4.68.4q2.2,0,7.21-3.91t11.09-9.63h3.16l-9.33,10.65c-.11.14-.32.39-.66.77a5.81,5.81,0,0,0-.76,1,1.3,1.3,0,0,0-.22.78c0,.26.21.4.64.4,1,0,2.84-.89,5.57-2.66a48.22,48.22,0,0,0,8-6.63v.68a51.9,51.9,0,0,1-7.91,6.57q-3.95,2.59-5.79,2.6a1.24,1.24,0,0,1-1.4-1.4,6.92,6.92,0,0,1,1.22-3.33,48,48,0,0,1,3.79-5.12l.76-.88-1.49,1.32q-4.84,4.32-8.34,6.87c-2.34,1.69-4.17,2.54-5.51,2.54-1,0-1.48-.58-1.48-1.72a5.68,5.68,0,0,1,.66-2.47A17.38,17.38,0,0,1,194,309.3q1.11-1.44,2.34-2.82l2.53-2.82-2,1.2A49.94,49.94,0,0,0,192.83,308.06Z" transform="translate(-7.9)"/><path class="cls-4" d="M216.77,307.42c1.21-1,2.4-1.94,3.59-2.92s2.37-1.93,3.54-2.81a2.68,2.68,0,0,1,.32-2.22,1.86,1.86,0,0,1,1.56-1,1.47,1.47,0,0,1,.92.3.89.89,0,0,1,.4.74,1.08,1.08,0,0,1-.34.84,1.12,1.12,0,0,1-.82.32,2.29,2.29,0,0,1-1.32-.8,1.46,1.46,0,0,0-.24.88,1.11,1.11,0,0,0,.38.9,1.31,1.31,0,0,0,.94.42,5.25,5.25,0,0,0,1.08-.16c.54-.1.86-.16,1-.16s.39.2.54.6a4.47,4.47,0,0,1,.22,1.45,3.41,3.41,0,0,1-1,1.9c-.65.79-1.78,2.07-3.38,3.86s-2.71,3.06-3.32,3.81a3.19,3.19,0,0,0-.92,1.72c0,.4.26.6.8.6.75,0,2.34-.88,4.78-2.62s5.28-4,8.51-6.67v.68q-10.77,9.16-13.61,9.17-1.08,0-1.08-1.32a8.65,8.65,0,0,1,.74-3.57,14.93,14.93,0,0,1,2.54-3.72l4.68-5.17a4.78,4.78,0,0,1-1.9.29c-.7,0-1.14-.23-1.3-.61q-5.33,4.41-7.29,5.89Z" transform="translate(-7.9)"/><path class="cls-4" d="M158.12,356.09q2.44-2.56,6.92-7.19t8.55-8.13a51.7,51.7,0,0,1,8.29-5.88,16.12,16.12,0,0,1,7.83-2.38,6,6,0,0,1,3.64,1,3.22,3.22,0,0,1,1.36,2.76,2.29,2.29,0,0,1-.44,1.48,1.37,1.37,0,0,1-1.12.56c-.88,0-1.32-.41-1.32-1.24a1.09,1.09,0,0,1,1.24-1.24,1.32,1.32,0,0,1,.44.1,1.41,1.41,0,0,0,.36.1c.16,0,.24-.15.24-.44a2.09,2.09,0,0,0-1.18-1.8,6,6,0,0,0-3.14-.72,16,16,0,0,0-7.93,2.52,48.7,48.7,0,0,0-7.85,5.66q-3.52,3.15-7,6.81c-2.34,2.44-4.05,4.25-5.15,5.43q-3,3-7.57,7.7t-8,8a74.15,74.15,0,0,1-6.65,5.65,31.07,31.07,0,0,1-6.15,3.64l-.32-.48a53.36,53.36,0,0,0,7.05-9.25q8.13-14.17,14.73-21.74l2.65-3c1.78-2,3.4-3.81,4.84-5.33,1.68-1.68,2.42-2.52,2.2-2.52a19.46,19.46,0,0,0-3.14,2.66q-2.86,2.67-6.59,6.39t-6.4,6.68l-1.56,1.73c-1.93,2.19-4.07,4.53-6.45,7s-4.79,4.91-7.25,7.25a89.7,89.7,0,0,1-7.4,6.35,32.94,32.94,0,0,1-7,4.2l-.32-.48a35.58,35.58,0,0,0,5.14-5.87q2.55-3.54,6-9.14l2.12-3.45.56-1A106,106,0,0,1,145.67,342l2.88-2.88a12.33,12.33,0,0,1-6.89,2.64q-3.28,0-3.28-2.88c0-.08.05-.48.16-1.2s.16-1.16.16-1.32a2.37,2.37,0,0,0-.64-1.42,4.93,4.93,0,0,0-1.92-1.32,8,8,0,0,0-3.09-.54,14.42,14.42,0,0,0-7.14,1.76,13.46,13.46,0,0,0-4.87,4.3,8.66,8.66,0,0,0-1.68,4.67,4.29,4.29,0,0,0,1.58,3.42,6.09,6.09,0,0,0,4.06,1.34,11.57,11.57,0,0,0,6-1.64,23.1,23.1,0,0,0,5.55-4.93l.24.41q-5.08,6.72-11.9,6.72a6.66,6.66,0,0,1-4.48-1.44,4.84,4.84,0,0,1-1.68-3.88,9.2,9.2,0,0,1,1.8-5.11,14,14,0,0,1,5-4.42,15.44,15.44,0,0,1,7.52-1.76,8.6,8.6,0,0,1,5.17,1.42,4.28,4.28,0,0,1,2,3.62c0,.13,0,.47-.08,1s-.08.84-.08.92c0,1.15.65,1.72,2,1.72a9.54,9.54,0,0,0,5.79-2.24,55.13,55.13,0,0,0,5.62-4.92l.8-.82a4.13,4.13,0,0,1,.58-.52,1,1,0,0,1,.58-.18c.22,0,.32.05.32.16s-.6.81-1.8,1.88a50.76,50.76,0,0,0-7.34,7.77,103.46,103.46,0,0,0-6.43,9.68q-2.69,4.49-4.1,6.63c-1,1.43-2.51,3.44-4.67,6.05s-5.23,6.08-9.21,10.43L120.56,377a56.46,56.46,0,0,0,6.17-4.21q3-2.31,5.06-4.28t4.47-4.34q2.36-2.39,6.36-6.71l2.88-3.12q3.38-3.69,6.53-7t5.85-6c1.79-1.77,3.57-3.42,5.36-4.94a47.24,47.24,0,0,1,5-3.8l.52.4q-6.88,7.72-8.29,9.65-.53.75-2.4,3.68l-3.33,5.14q-1.44,2.22-3.4,5.15-5.37,7.77-7.95,11t-7.3,8.23L135,377a41.93,41.93,0,0,0,6-4.21q3.4-2.76,6.55-5.8t6-6Q156.4,357.94,158.12,356.09Z" transform="translate(-7.9)"/><path class="cls-4" d="M173.37,366.42v.68a49,49,0,0,1-8.21,6.83,14,14,0,0,1-7.52,2.34q-3.37,0-3.37-3.85a7.69,7.69,0,0,1,2.43-5.62,16.48,16.48,0,0,1,5.68-3.72,15.21,15.21,0,0,1,5.31-1.31,2.8,2.8,0,0,1,1.82.54,1.77,1.77,0,0,1,.66,1.43,3.22,3.22,0,0,1-1.48,2.5,12.06,12.06,0,0,1-4.13,1.88,26.63,26.63,0,0,1-6.2.86q-3,3.45-3.05,5.25a1.23,1.23,0,0,0,.67,1.06,3,3,0,0,0,1.66.42Q164.08,375.71,173.37,366.42Zm-14.21,1.8a16.31,16.31,0,0,0,5.6-.84,9.7,9.7,0,0,0,3.47-2c.78-.78,1.18-1.4,1.18-1.88,0-.78-.46-1.17-1.36-1.17a8,8,0,0,0-4.21,1.59A22,22,0,0,0,159.16,368.22Z" transform="translate(-7.9)"/><path class="cls-4" d="M186.1,365.62l21.63-24.71H211L185.78,369.7c-.56.64-1.17,1.36-1.84,2.16s-1.15,1.43-1.46,1.89a4.44,4.44,0,0,0-.64,1.32c-.12.42.07.64.58.64.67,0,2.31-1,4.93-3.1s5.07-4.14,7.36-6.19v.68q-4.72,4.13-7.94,6.65t-4.71,2.52c-.69,0-1-.41-1-1.24a11,11,0,0,1,1.12-4.17.18.18,0,0,0-.06-.1s-.07-.06-.1-.06q-5.56,5.57-8.77,5.57-2.28,0-2.28-3.77a8,8,0,0,1,2.24-5.44,15.49,15.49,0,0,1,5.53-3.88,15.06,15.06,0,0,1,5.84-1.41c1.36,0,2,.58,2,1.73A4.54,4.54,0,0,1,186.1,365.62Zm-1.72-3.29q-1.63,0-4.68,2.31a30.56,30.56,0,0,0-5.39,5.2c-1.56,1.94-2.34,3.45-2.34,4.55,0,.88.41,1.32,1.24,1.32q1.77,0,4.87-2.3a32.44,32.44,0,0,0,5.52-5.19c1.62-1.92,2.42-3.39,2.42-4.4S185.48,362.33,184.38,362.33Z" transform="translate(-7.9)"/><path class="cls-4" d="M207.41,365.62,229,340.91h3.28L207.08,369.7c-.56.64-1.17,1.36-1.84,2.16s-1.15,1.43-1.46,1.89a4.44,4.44,0,0,0-.64,1.32c-.12.42.07.64.58.64.67,0,2.31-1,4.93-3.1s5.07-4.14,7.36-6.19v.68q-4.72,4.13-7.94,6.65t-4.71,2.52c-.69,0-1-.41-1-1.24a11,11,0,0,1,1.12-4.17.18.18,0,0,0-.06-.1s-.07-.06-.1-.06q-5.57,5.57-8.77,5.57-2.28,0-2.28-3.77a8,8,0,0,1,2.24-5.44,15.49,15.49,0,0,1,5.53-3.88,15.06,15.06,0,0,1,5.84-1.41c1.36,0,2,.58,2,1.73A4.54,4.54,0,0,1,207.41,365.62Zm-1.73-3.29q-1.63,0-4.68,2.31a30.56,30.56,0,0,0-5.39,5.2c-1.56,1.94-2.34,3.45-2.34,4.55,0,.88.42,1.32,1.24,1.32q1.77,0,4.87-2.3a32.81,32.81,0,0,0,5.52-5.19q2.43-2.88,2.43-4.4C207.33,362.83,206.78,362.33,205.68,362.33Z" transform="translate(-7.9)"/><path class="cls-4" d="M215.09,368l-.08-.64a47.2,47.2,0,0,1,7.13-5.25h3.6l-9.45,10.57a5.83,5.83,0,0,0-1.28,2.09q-.27,1,.48,1,2,0,6-3a73.56,73.56,0,0,0,7.33-6.24v.68a80.76,80.76,0,0,1-7.49,6.41c-2.4,1.78-4.37,2.68-5.89,2.68-.88,0-1.32-.47-1.32-1.4q0-4.17,6.49-10.65c.24-.24.46-.48.66-.7s.39-.44.58-.62A39.62,39.62,0,0,0,215.09,368ZM229,353.65c.58,0,.88.36.88,1.08a1.51,1.51,0,0,1-.36,1,1.18,1.18,0,0,1-.92.4c-.72,0-1.09-.32-1.09-1a1.55,1.55,0,0,1,.45-1.06A1.32,1.32,0,0,1,229,353.65Z" transform="translate(-7.9)"/><path class="cls-4" d="M227.7,368.06v-.64q6.09-5.64,8.53-5.65c.91,0,1.36.58,1.36,1.73a5,5,0,0,1-.84,2.68q-.84,1.32-3.4,4.6,5-4.12,8.61-6.56t6.24-2.45c.91,0,1.37.63,1.37,1.89a6.3,6.3,0,0,1-1.29,3.66,18.06,18.06,0,0,1-4.2,3.94q-3.12,2.37-3.12,3.37a1,1,0,0,0,.38.74,1.19,1.19,0,0,0,.78.34,7.43,7.43,0,0,0,3.7-1.54,50.34,50.34,0,0,0,5-3.93q2.72-2.39,4.4-3.82v.68q-2.44,2.28-4.76,4.26a40.48,40.48,0,0,1-4.63,3.45,7.7,7.7,0,0,1-3.82,1.46,1.52,1.52,0,0,1-1.38-.64,2.39,2.39,0,0,1-.42-1.32,6.6,6.6,0,0,1,1.2-3.43,16.72,16.72,0,0,1,3.32-3.7,23.91,23.91,0,0,0,3.38-3.46c.63-.87.45-1.31-.54-1.31-1.25,0-3.15.85-5.68,2.55a77.12,77.12,0,0,0-7.13,5.36q-3.31,2.82-6.29,5.55h-3.12l5.33-6q5.83-6.53,5.84-7.12c0-.27-.16-.41-.48-.41Q234.32,362.33,227.7,368.06Z" transform="translate(-7.9)"/><path class="cls-4" d="M254.61,381l6-7.52a10.06,10.06,0,0,0-1.12.72c-1.93,1.3-3.44,2-4.53,2q-2.81,0-2.8-3.69a7.18,7.18,0,0,1,1.38-4.2,12.86,12.86,0,0,1,3.54-3.38,19.7,19.7,0,0,1,4.49-2.21,13.46,13.46,0,0,1,4.28-.78c1.6,0,2.4.58,2.4,1.73a5.25,5.25,0,0,1-.32,1.48l2.77-3.21H274l-14.9,17a52.21,52.21,0,0,0,7.79-4.78c2.68-2,5.91-4.53,9.67-7.71v.68q-3.88,3.36-6.64,5.54a66.06,66.06,0,0,1-5.69,4,52,52,0,0,1-6.05,3.28c-3.41,3.74-6.28,6.76-8.58,9.07a73.9,73.9,0,0,1-5.77,5.31,20.38,20.38,0,0,1-3.86,2.56,7,7,0,0,1-2.93.72,2.7,2.7,0,0,1-1.92-.68,2.28,2.28,0,0,1-.72-1.72,6,6,0,0,1,1.68-3.69,20.71,20.71,0,0,1,4.81-4,47,47,0,0,1,7.28-3.7l5.85-2.49Zm-.76.88q-7.46,3.21-11,5.07a22.23,22.23,0,0,0-5.89,4.38c-1.33,1.5-2,2.78-2,3.85a1.6,1.6,0,0,0,.6,1.32,2.42,2.42,0,0,0,1.56.48,7.88,7.88,0,0,0,4.31-1.64,36.81,36.81,0,0,0,5.7-5.25Q252.13,384.32,253.85,381.91Zm13.81-18a1.21,1.21,0,0,0-.54-1,2.22,2.22,0,0,0-1.3-.38c-1.49,0-3.22.77-5.18,2.29a25.87,25.87,0,0,0-5.11,5.24c-1.44,2-2.16,3.43-2.16,4.37a1.1,1.1,0,0,0,.5.86,1.74,1.74,0,0,0,1.06.38q1.6,0,4.69-2.28a34.87,34.87,0,0,0,5.56-5.15Q267.65,365.34,267.66,363.9Z" transform="translate(-7.9)"/><path class="cls-4" d="M159.6,396.91l.64.08a14.68,14.68,0,0,1-2.3,7.45,31,31,0,0,1-5.87,7.12,33.68,33.68,0,0,1-7.49,5.25,15.7,15.7,0,0,1-7,2,5.08,5.08,0,0,1-3.87-1.46,5.62,5.62,0,0,1-1.38-4,12.91,12.91,0,0,1,2.6-7.41,26.9,26.9,0,0,1,7.09-6.75,39.21,39.21,0,0,1,10.37-4.84,40.77,40.77,0,0,1,12.17-1.82,29,29,0,0,1,4.91.36,15.72,15.72,0,0,1,3.78,1.14,18.48,18.48,0,0,1,3.77,2.42,40,40,0,0,1,4.24-2.36,26.08,26.08,0,0,1,3.88-1.56l.48.64a25.71,25.71,0,0,0-4.16,1.72c-1.6.8-2.88,1.51-3.84,2.12a7.45,7.45,0,0,1,1.66,2.8,12.5,12.5,0,0,1,.38,3.29,9.73,9.73,0,0,1-1.14,4.68,12.83,12.83,0,0,1-3.47,4,29,29,0,0,1-6.16,3.57,12.17,12.17,0,0,1,1.22,2.78,11.21,11.21,0,0,1,.34,2.94,13,13,0,0,1-1.68,6.21,20.91,20.91,0,0,1-4.45,5.63,22.93,22.93,0,0,1-6.24,4,17.22,17.22,0,0,1-6.89,1.52q-3.76,0-3.76-3.16a8.74,8.74,0,0,1,1.9-5,20,20,0,0,1,5.06-4.82,21.83,21.83,0,0,1,6.57-3.09l.16.57a23.41,23.41,0,0,0-8.69,4.84,18.3,18.3,0,0,0-3.26,4,7.4,7.4,0,0,0-1.18,3.67c0,1.63,1.09,2.44,3.28,2.44a11.77,11.77,0,0,0,6.67-2.18,23.41,23.41,0,0,0,5.7-5.55,32.12,32.12,0,0,0,3.87-6.64,14.7,14.7,0,0,0,1.38-5.41,6.14,6.14,0,0,0-.48-2.44,8.4,8.4,0,0,1-4.09,1,3.5,3.5,0,0,1-2.3-.58,2,2,0,0,1-.66-1.58,2.21,2.21,0,0,1,.66-1.6,2.52,2.52,0,0,1,1.9-.69q2.37,0,4.57,2.57a20.37,20.37,0,0,0,4.8-3.79,19.26,19.26,0,0,0,3.53-5,11.76,11.76,0,0,0,1.28-5,4.85,4.85,0,0,0-1.08-3.52,45.14,45.14,0,0,0-8.75,6.63,73.84,73.84,0,0,0-9.87,12,60.8,60.8,0,0,1-4.69,6.36q-2,2.25-5,5.05a61.28,61.28,0,0,1-6.37,5.2,35,35,0,0,1-5.88,3.43,27.16,27.16,0,0,1-5.51,1.78,29.14,29.14,0,0,1-5.78.56q-9,0-9-4.56a2.74,2.74,0,0,1,.56-1.81,1.91,1.91,0,0,1,1.56-.68,1.31,1.31,0,0,1,1,.44,1.49,1.49,0,0,1,.4,1,1.12,1.12,0,0,1-.44.89,1.39,1.39,0,0,1-.88.36,1.46,1.46,0,0,1-1.24-.68.26.26,0,0,0-.24-.16c-.11,0-.16.25-.16.76,0,1.14.71,2.07,2.14,2.78a13.93,13.93,0,0,0,6.06,1.06,24.36,24.36,0,0,0,7.33-1,20.73,20.73,0,0,0,6.15-3.18,54.15,54.15,0,0,0,6.7-6.21c.57-.61,1.46-1.64,2.69-3.06l4.58-5.37q2.75-3.23,4.93-5.7a38.63,38.63,0,0,1,3.06-3.25l2.44-2.32q5.73-5.37,7.69-7a53.08,53.08,0,0,1,5.85-3.92q-4.33-3.76-11.66-3.76A40.2,40.2,0,0,0,152.29,395a37.15,37.15,0,0,0-10.13,4.92,26.18,26.18,0,0,0-6.72,6.63,12.19,12.19,0,0,0-2.43,6.75,5.11,5.11,0,0,0,1.22,3.6,4.41,4.41,0,0,0,3.39,1.32,15.08,15.08,0,0,0,6.68-2,34.24,34.24,0,0,0,7.33-5.13,30.44,30.44,0,0,0,5.73-6.86A14.15,14.15,0,0,0,159.6,396.91ZM168,415a5,5,0,0,0-4.09-2.24,1.9,1.9,0,0,0-1.36.54,1.71,1.71,0,0,0-.56,1.26c0,1.07.8,1.56,2.4,1.48a7.13,7.13,0,0,0,1.72-.3A16.5,16.5,0,0,0,168,415Z" transform="translate(-7.9)"/><path class="cls-4" d="M190,426.42v.68a6.47,6.47,0,0,1-5,2.68l-.56-.08-.64-.08q-6.41,6.64-11.09,6.65a3.07,3.07,0,0,1-2.74-1.68,4,4,0,0,1-.38-1.77,7.77,7.77,0,0,1,2.36-5.24,18.87,18.87,0,0,1,5.71-4.18,13.66,13.66,0,0,1,5.86-1.63c1.82,0,2.72.84,2.72,2.53a8.54,8.54,0,0,1-2,4.76,2.3,2.3,0,0,0,.88.16C186.79,429.22,188.4,428.29,190,426.42Zm-6.37-4.09c-1.49,0-3.21.85-5.14,2.55a37.14,37.14,0,0,0-5.21,5.58q-2.29,3-2.3,3.77a1.26,1.26,0,0,0,.58,1.06,2.43,2.43,0,0,0,1.46.42,9.45,9.45,0,0,0,5.11-2.1,25.82,25.82,0,0,0,5.26-5q2.28-2.86,2.28-4.5a1.61,1.61,0,0,0-.58-1.3A2.11,2.11,0,0,0,183.58,422.33Z" transform="translate(-7.9)"/><path class="cls-4" d="M207,426.42v.68a6.45,6.45,0,0,1-5,2.68l-.56-.08-.64-.08q-6.41,6.64-11.09,6.65a3.05,3.05,0,0,1-1.62-.46,3,3,0,0,1-1.12-1.22,3.85,3.85,0,0,1-.39-1.77,7.74,7.74,0,0,1,2.37-5.24,18.7,18.7,0,0,1,5.7-4.18,13.73,13.73,0,0,1,5.87-1.63c1.81,0,2.72.84,2.72,2.53a8.54,8.54,0,0,1-2,4.76,2.3,2.3,0,0,0,.88.16C203.84,429.22,205.46,428.29,207,426.42Zm-6.36-4.09c-1.5,0-3.21.85-5.15,2.55a37.08,37.08,0,0,0-5.2,5.58c-1.54,2-2.3,3.29-2.3,3.77a1.26,1.26,0,0,0,.58,1.06,2.4,2.4,0,0,0,1.46.42,9.45,9.45,0,0,0,5.1-2.1,25.62,25.62,0,0,0,5.27-5q2.28-2.86,2.28-4.5a1.61,1.61,0,0,0-.58-1.3A2.13,2.13,0,0,0,200.64,422.33Z" transform="translate(-7.9)"/><path class="cls-4" d="M217.17,417.81l7-6a62.76,62.76,0,0,0,5.47-5.28q2.85-3.09,4.94-5.65h3.37l-31.24,35h-3.36L224,412.73c-.85.77-1.75,1.56-2.68,2.36l-2.44,2.1-2.73,2.34-4.8,4.13-4,3.36-1.29,1v-.64l4.25-3.68S212.56,421.76,217.17,417.81Zm16.26,8.61v.68l-2,1.72a63.89,63.89,0,0,1-7.47,5.81,9.57,9.57,0,0,1-4.94,1.64c-1.26,0-1.89-.71-1.89-2.12a7.1,7.1,0,0,1,1.89-4.37,2.91,2.91,0,0,0,.84-1.72.42.42,0,0,0-.48-.48l-.68.08c-.38,0-.62.08-.72.08-1.15,0-1.73-.21-1.73-.64s.35-.52,1-.52a9,9,0,0,1,2.33.52,16.91,16.91,0,0,0,3.92-2.56,16.06,16.06,0,0,1,3.22-2.18,6.5,6.5,0,0,1,2.75-.59c1.49,0,2.24.43,2.24,1.29a.82.82,0,0,1-.92.92c-.7,0-1-.31-1-.92l.16-.73c0-.1-.08-.16-.24-.16-1.34,0-2.87.79-4.61,2.37a17,17,0,0,1-4.84,2.88,4.21,4.21,0,0,1,.84,2.44,4.74,4.74,0,0,1-1.56,3.37c-.83,1-1.24,1.56-1.24,1.8,0,.45.29.68.88.68q2,0,5.18-2.12A95.91,95.91,0,0,0,233.43,426.42Z" transform="translate(-7.9)"/><path class="cls-4" d="M257.69,403.08l2-2.17h3.08l-25.23,28.23q-4.52,5-4.52,5.81c0,.5.27.76.8.76a6.12,6.12,0,0,0,3.2-1.18,43.75,43.75,0,0,0,4.87-3.95q3.06-2.76,4.5-4v.68q-5.44,5-8,7a7.75,7.75,0,0,1-4.61,2,1.59,1.59,0,0,1-1.22-.54,1.81,1.81,0,0,1-.5-1.26,8.55,8.55,0,0,1,2-4.77,75.13,75.13,0,0,1,5.41-6.36q.24-.33,1.44-1.71c.8-.92,1.57-1.83,2.32-2.74Q240.52,421,232.63,428v-.64L244,417.49Q246.08,415.74,257.69,403.08Z" transform="translate(-7.9)"/><path class="cls-4" d="M262.54,426.42v.68a49.4,49.4,0,0,1-8.21,6.83,14,14,0,0,1-7.53,2.34q-3.36,0-3.36-3.85a7.72,7.72,0,0,1,2.42-5.62,16.52,16.52,0,0,1,5.69-3.72,15.12,15.12,0,0,1,5.3-1.31,2.78,2.78,0,0,1,1.82.54,1.77,1.77,0,0,1,.66,1.43,3.19,3.19,0,0,1-1.48,2.5,12,12,0,0,1-4.12,1.88,26.65,26.65,0,0,1-6.21.86c-2,2.3-3,4-3,5.25a1.24,1.24,0,0,0,.66,1.06,3,3,0,0,0,1.66.42Q253.25,435.71,262.54,426.42Zm-14.22,1.8a16.33,16.33,0,0,0,5.61-.84,9.65,9.65,0,0,0,3.46-2c.79-.78,1.18-1.4,1.18-1.88,0-.78-.45-1.17-1.36-1.17a8,8,0,0,0-4.2,1.59A22.26,22.26,0,0,0,248.32,428.22Z" transform="translate(-7.9)"/><path class="cls-4" d="M275.27,416.17l6.65-7.53h3.44l-6.65,7.53h5.09l-.44.68h-5.17l-9.73,11c-1.06,1.17-2.25,2.59-3.54,4.24a16.54,16.54,0,0,0-1.94,2.73c0,.56.29.84.88.84q3.28,0,14.09-9.29v.68L275.83,429q-8.28,7.29-12.05,7.29a1.93,1.93,0,0,1-1.44-.52,1.65,1.65,0,0,1-.52-1.2q0-1.6,2.26-5.33T273,418.89a116.74,116.74,0,0,0-11.37,9.17v-.64c1.63-1.55,3.64-3.3,6-5.27s4.75-3.73,7.05-5.3h-2.92l.56-.68Z" transform="translate(-7.9)"/><g class="cls-5"><path class="cls-6" d="M293,646.8a38.11,38.11,0,0,1-4-3c-.88-.7-3.11,2.17-3.66,2.84a32.2,32.2,0,0,0-3.28,4.59c.13.28,1.49.22,1.81.27a21.53,21.53,0,0,1,2.22.5c6.89,1.82,12.48,6.61,18.17,10.65,5,3.54,10.34,6.59,16.34,7.7a.88.88,0,0,0-.52.48c-1.55,1.4-2.43,4.68-3,6.61a35,35,0,0,0-1.44,8.12,38.12,38.12,0,0,0,0,4.14c0,1-.17,3,.49,3.89,8.94-5.41,17.81-13.36,17.33-24.51l.17-.06.58-.22c.19,1.3.26,3.25.43,4.63,1,5.45,2.55,10.72,6,15.2a24.85,24.85,0,0,0,2.46,2.77c.87.85.88-.34,1-1.14a40.43,40.43,0,0,0,1.31-6.9c.24-2.66-1.14-5.27-1.82-7.83a57.51,57.51,0,0,0-1.5-6.19,22.32,22.32,0,0,0,9.09,3,40.32,40.32,0,0,0,20.43-3.59,12.57,12.57,0,0,0-1.83-1.89c-.19-.18-.3-.29-.37-.34a39.11,39.11,0,0,0-16.51-9.22c-.9-.23-1.67-.31-2.43-.54h0a19.19,19.19,0,0,0,4.37-6.52c2.37-7-.48-15-2.95-21.55-2.64-7-5.37-14-4.38-21.7a22.1,22.1,0,0,1,.52-2.79c.18-.82.47-1-.56-1a31.6,31.6,0,0,0-5.13.77c-.77.19-1.52.42-2.28.63s-.92.25-1,1.11c-.12,1.85.77,3.4,1.1,5.16-.67,0-1.46-3.58-1.62-4.16a30,30,0,0,1-.79-4.7,33.67,33.67,0,0,1,.21-8.51c.11-.77-.44-.52-1.07-.39a10.14,10.14,0,0,0-2.1.62,27.43,27.43,0,0,0-4.29,2.35c-.64.44-1.22.94-1.83,1.41a7.27,7.27,0,0,0,.56,1.77c.23.47,1.46,3.2,1.1,3.6-.66-1.29-1.29-2.59-1.95-3.88a33,33,0,0,1-1.79-3.23,16.13,16.13,0,0,0-1.39-2.22c-.47-.8-.74.31-1,.76a16.41,16.41,0,0,1-1,1.35c-.84,1.06-1.65,2.13-2.55,3.13-.36.39-1.4,1.15-1,1.66a10,10,0,0,0,.85,1.09c1.16,1.67,2.12,4,1.12,6-2,3.87-8.4,5.22-12.33,4.42-6.55-1,1.84-8.23,4.27-5.12a9,9,0,0,0-3,.77c-.71.34-1.85.67-2.23,1.44-.76,1.58,3.64,1.58,4.37,1.57a9.25,9.25,0,0,0,5.52-1.77c1.3-1,3.07-3,2.61-4.77s-3-2-4.56-2.08a21.27,21.27,0,0,0-6.39.85,27.33,27.33,0,0,0-6.11,2.7,24.48,24.48,0,0,0-2.32,1.47A19,19,0,0,1,299,609c0-.52,1.15-1.33,1.49-1.62.52-.46,1.88-1,2.17-1.65a33.37,33.37,0,0,1-4.43-1.48c-.43-.19-4-1.93-4-1.82a49.56,49.56,0,0,0-2.11,9.57c-.19,1.25-.36,2.49-.53,3.74-.08.75-.19,1.5-.28,2.25,0,.38.05,1.29-.24,1.61-.5-1.33-.18-3.32-.06-4.7,0-.52.51-1.72-.22-1.69a16.37,16.37,0,0,0-2.09.27,45.4,45.4,0,0,0-9.75,2.84c1.17,1.62,2.81,3,4,4.57a42,42,0,0,1,3.27,4.78c.94,1.65,1.84,3.35,2.67,5.06.45.94.91,1.88,1.31,2.84.18.46,1.06,1.89.83,2.37-.69-.44-1.16-2-1.54-2.73-.49-.94-1-1.86-1.54-2.8-.93-1.73-1.81-3.5-2.82-5.18a18.45,18.45,0,0,0-6.13,6.38,20,20,0,0,0-1.85,3.66c-.18.48-.52.79.09,1,.28.08.55.16.81.26.53.2,1,.44,1.55.69a51.35,51.35,0,0,1,7.47,4.72c1.21.89,2.44,1.78,3.59,2.75.34.27,2.73,1.88,2.58,2.29Zm30.45-2c.14,0,.16.28,0,0Zm0-4a10.37,10.37,0,0,1-3-.4,12.44,12.44,0,0,1-3.15-.18c-1.05,0-2.1,0-3.14,0-4.53,0-9,.46-13.56.6-3.89.13-8,.24-11.71-1.25-1.46-.59-3.53-1.29-4.57-2.55-.56-.27-3.77-3.39-3.27-3.92.32.1.68.71.93.93s.77.67,1.18,1c.66.48,1.36.93,2.07,1.37a27.33,27.33,0,0,0,5.24,2,43.07,43.07,0,0,0,5.77.81,62.42,62.42,0,0,0,6.27-.1c2.36-.12,4.72-.43,7.07-.67,1.24-.12,2.47-.27,3.71-.35a7.87,7.87,0,0,1,2.65,0c1.73-.4,4.22.33,5.92.67,1,.21,2,.49,3,.78a10.62,10.62,0,0,0,2.22.71c.23-.77-.18-2-.15-2.86a15,15,0,0,1,.67-3.82,7.8,7.8,0,0,1,1-2.47c.17-.86,0-.46-.65-.92-.4-.1-.81-.17-1.2-.29a35.67,35.67,0,0,0-6.74-1.12c-2.66-.37-5.33-.56-8-.85s-5.33-.25-8-.55c-1-.11-2-.11-3-.26s-2.91-.19-3.82-.85c-.7.24-2.61-.81-3.25-1.1a12.12,12.12,0,0,1-2.71-1.55,7.6,7.6,0,0,1-2.62-2.23,11.6,11.6,0,0,1-1.85-2.56c.22-.1,1.23,1.37,1.46,1.57.39.4,1.32.79,1.55,1.26a18.56,18.56,0,0,1,1.78.9,23.56,23.56,0,0,0,2.25.85,35.59,35.59,0,0,0,9.22,1.6c3.44,0,7,.34,10.41.61,1.62.13,3.24.29,4.85.51.54.07,1.49.43,2,.24a6.15,6.15,0,0,0,.49-1.52c.55-1.49,1.08-3.51,2.17-4.71.05-.42,1.07-1.25.31-1.37s-1.52-.22-2.29-.32c-3.07-.39-6.21-1-9.29-1.14-5.63-.29-11.92-2.13-14.89-7.37.36,0,.74.66.87.9a13.94,13.94,0,0,0,1.14,1,10.27,10.27,0,0,0,1.75,1.13,17.63,17.63,0,0,0,4.41,1.67,23.06,23.06,0,0,0,6.19.74c2-.09,4.07.18,6.09.08.51,0,2,.37,2.14-.12.22-.65.52-1.31.8-2,.69-1.64,1.48-3.2,2.31-4.77a28,28,0,0,0,2.32-4.61c.64-2,0-3.5-1.2-5.1,1-.11,2.58,2.74,2.53,3.59.63,1.57-.3,3.52-1,4.89-.83,1.75-1.68,3.49-2.52,5.24a18.45,18.45,0,0,0-1,2.35c-.09.26-.36.52-.22.79.44.06.89.06,1.32.16.73.09,2,.56,2.68.21a6.58,6.58,0,0,1,1.11-1.69c1.26-1.76,2.6-3.49,3.75-5.32a21,21,0,0,0,2.51-5.71,14.22,14.22,0,0,0,.49-2.88c0-.44-.21-2.11,0-2.4.42,0,.65,3.07.61,3.51a36,36,0,0,1-.43,4.36,18,18,0,0,1-3,6.49,57.82,57.82,0,0,0-4.33,7.37c-.69,1.42-1.31,2.87-1.93,4.32-.25.61-.5,1.23-.76,1.83s-.53.85.17,1c1,.22,1.88.36,2.91.6l2.25.54c.8.14,1,.56,1.49-.23a45.5,45.5,0,0,1,5.29-6.51,50.18,50.18,0,0,0,5.8-6.81,28.93,28.93,0,0,0,2.15-4c.52-1.17.75-2.59,1.36-3.69.54-.07-.32,3.31-.42,3.59a21.12,21.12,0,0,1-1.52,3.4,61.19,61.19,0,0,1-4.6,7.11c-1.95,2.46-4,4.83-5.85,7.4a22,22,0,0,0-3.14,7.17,14,14,0,0,0-.28,4.69c0,.46-.1.8.46.79a9.75,9.75,0,0,1,1.08,0c.56,0,1.11.07,1.68.13a18.47,18.47,0,0,1,7.89,2.94,29.72,29.72,0,0,1,5.92,5.06,19.83,19.83,0,0,1,2.4,2.94,16,16,0,0,1,2.54,3.8c-.22.1-2.18-2.65-2.53-3-1.06-1.14-2.16-2.22-3.26-3.33a20,20,0,0,0-3.33-2.53,36.34,36.34,0,0,1-3.33-1.77,23.51,23.51,0,0,0-8.26-1.47,38.94,38.94,0,0,0-9.2,1.56c-6.12,1.61-12,4.24-18.21,5.44a38.77,38.77,0,0,1-7.92,1,13.05,13.05,0,0,1-4-.45c-1-.35-2.65-.72-3.14-1.79.37-.14,1.63.51,2.06.59a16.21,16.21,0,0,0,2.41.2,23.89,23.89,0,0,0,4.91-.47,95.63,95.63,0,0,0,10.21-2.64c3.7-1.11,7.38-2.31,11.09-3.41,1.65-.49,3.32-.89,5-1.39a19.85,19.85,0,0,0,3.37-.92C325.65,641.22,324.51,640.93,323.35,640.8Z" transform="translate(-7.9)"/><path class="cls-6" d="M323.4,644.82c.16.28.14,0,0,0Z" transform="translate(-7.9)"/></g><g class="cls-7"><path class="cls-8" d="M314,515.06c-5-8-7.22,22.43-11.07,33.87-3.74,11.12-11,19.61-29.36,15.71-8.5-1.8-7.33,7.64,10.3,10.69s25-13.39,27.56-23.18,10.56-6.69,12.1-14.94S317.36,520.34,314,515.06Z" transform="translate(-7.9)"/><path class="cls-8" d="M235,553.44c7.58-3.87,32.57,11.07,47.77,7.73s23.31-32.2,21.51-37.4-8.2,15.89-21.47,23.88S260,550,236.45,542.89C225.32,539.54,221.83,560.14,235,553.44Z" transform="translate(-7.9)"/><path class="cls-8" d="M220.8,542.3c-1.19-12.83-22.18-30.95-22.89-26.2-2.07,13.75,3.83,41.46,25.47,50.73s25.24-5.66,37.6,4.64,1.54-15.51-15.42-13.65C228.25,559.71,223,565.8,220.8,542.3Z" transform="translate(-7.9)"/><path class="cls-8" d="M241.41,538.63c10,7.25,25.83,11.72,37.27,5.77,8.59-4.47,1.87-28.82-3.79-20.63s-19.29,15.54-36.19,6.75C233.83,528,233.33,532.8,241.41,538.63Z" transform="translate(-7.9)"/><path class="cls-8" d="M261,504.25c6.32-1.12,6.31,7.6,8.69,8.5s2-5.54,0-8.25-7.13-4.3-9.59-2.18C257.39,504.63,254.65,505.36,261,504.25Z" transform="translate(-7.9)"/><path class="cls-8" d="M258.92,516.1c1.37,3.77,13.91,5.83,17.69-2.07s-5.31-15.64-8.81-16.22c-3.18-.53-7,3.18-1.49,2.83s8.58,6.7,5.61,13.39-7,0-6.31-2.06-3.09-5.32-6.69-4.46S257.54,512.32,258.92,516.1Z" transform="translate(-7.9)"/><path class="cls-8" d="M249.05,528.79c6.23.37,19.14-.7,18.11-5s-11.59,3.4-12.88-8.19,2.32-20.8,10.82-19.25,8.37-5.41-1.16-4.64c-8.76.71-18,6.72-17.26,14.81S242.82,528.42,249.05,528.79Z" transform="translate(-7.9)"/><path class="cls-8" d="M224.61,535.93c8.76,13.45,9.53-7.21-.26-16s-14.08-26.53-5.66-32.45A28.25,28.25,0,0,0,227.44,476c.88-2.58-.58-4-3.09-3-13.26,5.67-30,16.29-28.84,23.78C196.8,505.28,215.85,522.48,224.61,535.93Z" transform="translate(-7.9)"/><path class="cls-8" d="M237.28,479.7c-14.77,7.89-24.21,20.08-14.76,31.42s18,20.26,20.26,17-19.92-23.52-7-40.52C245.86,474.24,243.06,476.61,237.28,479.7Z" transform="translate(-7.9)"/><path class="cls-8" d="M246.73,480.55C235.06,491,232.52,506.76,241,516.48c1.11,1.27,2.42,1.08,2.15-.58-1.63-10-1-21.6,13-26,16.18-5.06,24.19,6.86,24.46,7.3,1.19,1.89,1-1.38,0-4.29C276.36,481,259.16,469.46,246.73,480.55Z" transform="translate(-7.9)"/><path class="cls-8" d="M232.91,477.21c4.31-1.84,13.62-19.34,43.23.75s-.83,17.27,6.64,36.85c8.12,21.28,5,24.14,14.64,8.88,7.5-11.84,27.48-32.14,13.74-41.06s-19.53-6-48.64-22.68c-27.29-15.65-25.21,6.41-30.84,15C230.91,476.11,231.42,477.84,232.91,477.21Z" transform="translate(-7.9)"/></g><path class="cls-9" d="M365.51,243.64c.67-58-8.25-76.59-17.74-100.09-1-2.36-2-3.24-12.7-2.9-6.84.22-6.14-.3-7.08,1.18,26.14,28.47,31.1,64.09,37,101.69Z" transform="translate(-7.9)"/><path class="cls-10" d="M329.89,12.77c-6.47,1.71-12.52,7.75-13.33,12,.81,0,1.38-.65,2.07-1,4.91-2.71,7.36-3.69,13.44-3.54,7.34.84,13.65,6,17.62,12.17,13.73,31.82-20.35,52.44-23.47,74.28-3.43,11.31,6,29.59,9.31,30.14a5.38,5.38,0,0,0-.34-2.11c-5.05-32.33,4.57-36,14.47-52.27,6-9.21,17.35-28.16,16.81-39.16C367.49,21,347.65,8.09,329.89,12.77Z" transform="translate(-7.9)"/><path class="cls-10" d="M282.69,21.89c-10,9.57-1.12,23,.4,22.55,0,0-.36-9.61,3.28-12.91C297.24,17.31,311,25,314,25.17,312.29,19.78,295.14,10,282.69,21.89Z" transform="translate(-7.9)"/><path class="cls-10" d="M345.4,54.08c4.22-14.57-12.58-32.48-30.94-26.75-3,1.31-14.4,4.54-16.67,14.86a10.22,10.22,0,0,0,2.59-.95c13.6-6.47,29-7.72,35.5,9.62,2.57,7.86.16,13.42-.35,16.49C339.07,66.92,344.13,59.38,345.4,54.08Z" transform="translate(-7.9)"/><path class="cls-10" d="M336.48,79.89c6-5.52,8.22-11.44,8.14-14.75-1,.19-1.74,1.07-2.59,1.62C323.91,84.94,299.63,79.27,292,55.05c-3.43-16.57,6.65-21.94,7-24.65-2.89.77-8.84,6.58-11.85,11.36C264.4,72.48,304.4,109.34,336.48,79.89Z" transform="translate(-7.9)"/><path class="cls-10" d="M307.46,98.2c0-.11-.14-.35-.18-.47a7.45,7.45,0,0,1-1.41-.83C289.44,91,270,75.08,275.62,57.8c2.69-5.88,2.09-4.13,3.56-6.6.07-.21.41-.5.14-.69-11.57-2.37-19.22,9.63-17.69,19.95C265.33,95.4,297.5,99.43,307.46,98.2Z" transform="translate(-7.9)"/><path class="cls-10" d="M312.9,73.9c2.68,1,6.66-.13,7.45-.21C333.8,70.07,337.68,55.8,326.81,47a5.55,5.55,0,0,0-1.07-.25c2.41,11.78-1.33,17.47-5.78,19.54-8.16,3.72-14.5,1-17.44.71C302.87,69.09,308.08,73.27,312.9,73.9Z" transform="translate(-7.9)"/><path class="cls-10" d="M337.31,137.39a7.07,7.07,0,0,1,1.84.07C366.7,136,354.69,89,345.86,90.3a53.4,53.4,0,0,1,1.59,5.14,43.09,43.09,0,0,1,1.3,5.69C352.13,128.19,340.5,133.43,337.31,137.39Z" transform="translate(-7.9)"/><path class="cls-10" d="M333.08,138l.27-.66c-27.45-15.44-19.89-42.77-19.89-42.77-1.88.8-4.8,10.43-5.36,12.4-1.83,9.09.85,14.12.86,14.63C314.16,137.41,333,137.92,333.08,138Z" transform="translate(-7.9)"/><path class="cls-10" d="M279.54,47.18a3.14,3.14,0,0,0,1.52.65c-.8-8.74-11.19-10.27-18.74-7.24-9.63,3.86-9.92,14.06-4.44,20.57l.47.24a46.88,46.88,0,0,1,0-5.56C258.76,45.36,272,41.34,279.54,47.18Z" transform="translate(-7.9)"/><path class="cls-10" d="M324.18,51.05c-.36-8.75-13.06-12.9-19.18-7.27a12,12,0,0,0,1.28,19C312.7,66.81,324.67,64.23,324.18,51.05Zm-19.49.32c.73-3.36,4.46-4.41,5.42-4.84,6-1.86,11.45,4,10.08,8.71-.41,1.73-2.06,4.18-3.22,4.32a9,9,0,0,0,.12-5.37C315,48.55,310,49,305.53,51.06A3.28,3.28,0,0,1,304.69,51.37Z" transform="translate(-7.9)"/><polygon class="cls-11" points="119.5 30.3 119.5 30.3 119.5 30.3 119.5 30.3"/><polygon class="cls-11" points="130.17 44.72 130.17 44.72 130.17 44.72 130.17 44.72"/><path class="cls-12" d="M81.24,592.11c2.75-6.38,9-11.68,16-12.2,2.3-.41,4.29,1,6.13,2.11a13.33,13.33,0,0,0,8.6,2.22c4.36-.49,8.4-2.47,12.78-2.89,4.83-.26,10.27.41,13.93,3.91,1.61,1.46,2.45,3.61,4.15,5a19.63,19.63,0,0,0-6-17.5,9.28,9.28,0,0,0-9.12-2.08c-2.32.83-3.94,2.85-6.17,3.81-1.57.53-3-.76-4.1-1.62a11.07,11.07,0,0,0-5.76-3.27h-2.47c-3.31.11-4.57,3.66-7.29,4.82-3.67.52-5.77-3.76-9.37-3.68-4.92-.54-9,3.29-11,7.42-3.54,6.06-4.17,13.43-2.68,20.18C79.83,596.28,80.47,594.17,81.24,592.11Z" transform="translate(-7.9)"/><path class="cls-12" d="M161.05,588.14c3.11-.23,6.79.17,8.83,2.83,2.71,3.36,1.9,8.25-.32,11.65-1.45,2.06-3.06,4.13-3.68,6.63-.69,4.23,3.14,8,1.64,12.22-1.72,5-5.93,8.81-10.5,11.25-3.37,2.45-6.26,5.49-9.36,8.26-3.16,2.61-7.54,4.31-11.62,3-2.36-.55-4.74-1.1-7.13-1.54a13.83,13.83,0,0,0,7.4,8.92c4,1.15,8.95.51,12.05-2.5,2-2.61,4-5.26,6-7.82a14.11,14.11,0,0,1,9.41-4.81,23,23,0,0,0,12.51-5.11,10.65,10.65,0,0,0,3.75-9.13c-.14-5.36-2.89-10.18-3.49-15.46.22-3,2.35-5.41,3.3-8.21,1.79-4.37,1.61-9.81-1.33-13.65-2.9-3.68-7.5-5.57-12.07-6h0l-.91-.07c-8.09-.17-14.74,5.59-19.81,11.29C150.88,590.5,155.91,588.23,161.05,588.14Z" transform="translate(-7.9)"/><path class="cls-12" d="M69.78,622.92c1.13-4.11.49-9,3.73-12.26,2.7-2.82,6.55-4.1,10.27-4.94-3.84-3.12-7.61-6.46-10.36-10.61-1.42-2.28-2.7-5.06-2-7.81.4-2.69,2.39-5.12,1.87-7.93-.82-1.63-2.29-3.45-4.22-3.47h0a3.58,3.58,0,0,0-.85.1c-4.9.57-8,5.68-8.15,10.28-.17,2.13,1.13,4.15.64,6.27-2.47,3.13-7.23,3.86-8.95,7.72s.84,8.07,3.26,11.08C59.1,616.1,63.91,620.56,69.78,622.92Z" transform="translate(-7.9)"/><path class="cls-12" d="M85.78,591.66c-2.39,6.87,1.89,13.75,7,18,6.54,5.44,14.41,10.08,23.09,10.58,1.17-3.42.94-7.6-1.68-10.32-3-2.76-7.44-3.27-11.34-2.75-3.77-.11-6.05-4.05-6.93-7.3-1-5.41,3.68-9.47,4.1-14.59,0-2.24-2.27-3.35-4.27-3.31h0a5.68,5.68,0,0,0-.84.09C90.12,582.68,87.38,587.56,85.78,591.66Z" transform="translate(-7.9)"/><path class="cls-12" d="M119.23,587.85c-1.72.9-3.5-.11-5.24-.31-6.19-.23-11.31,5.91-11.08,11.87,2.4-.48,4.31-2.59,6.84-2.69,3.17-.08,6.55-.38,9.22-2.26,1.33-.71,2.75-2.07,4.37-1.4,3.32,1.52,6.2,4.29,10,4.39,2.17-.06,4.75-.15,6.18-2,1.2-2.1.28-4.82-1.39-6.39-2.3-2.31-5.45-4.14-8.76-4.18a7.65,7.65,0,0,0-1.43.1C124.82,585.07,122.06,586.65,119.23,587.85Z" transform="translate(-7.9)"/><path class="cls-12" d="M146.35,607.34c-5,2.86-10,5.61-15,8.44-4.11,2.42-8,5.64-10.15,10,4.85-3.12,9.89-6.28,15.63-7.41,3.34-.57,6.73.27,10.08-.2a18,18,0,0,0,11.84-5.51c2.66-2.85,3.79-6.8,4-10.62.49-5.17-4.63-9.48-9.53-9.51h0a11.57,11.57,0,0,0-9.06,5.23c-1.6,2.77-.24,6.22,1.78,8.37C146.05,606.44,147,607,146.35,607.34Z" transform="translate(-7.9)"/><path class="cls-12" d="M120.77,595.62c-4.06.89-9.94,4.68-8,9.51,2.41,3,7.16,2.62,10.38,1.46,1.89-1.72,5.37-3.82,3.93-6.82a5.72,5.72,0,0,0-5.28-4.3h0A4.46,4.46,0,0,0,120.77,595.62Z" transform="translate(-7.9)"/><path class="cls-12" d="M130.56,613.89c5.87-2.24,9.42-8.56,9.53-14.62-2.58,1.86-4.81,4.22-7.64,5.72-3.44,1.3-7.61,1.38-10.26,4.28-3.44,3-3.43,7.84-4.46,11.94C121.06,617.47,125.94,615.61,130.56,613.89Z" transform="translate(-7.9)"/><path class="cls-12" d="M73.83,615.32a5.55,5.55,0,0,0,.67,8.37c2.84,1.89,6.43,2.08,9.74,2,3.5-.13,7.69-1.26,10.57,1.36,2.63,2.84,3.83,6.67,6.09,9.77a12.63,12.63,0,0,0,5.32,3c6.63,1.87,13.69,1.13,20.32,3,1,.35.53-.39.3-.73C121.14,633.25,112.41,627,104,621c-6.49-4.21-13.5-9.17-21.51-9.16h0l-.77,0A14.53,14.53,0,0,0,73.83,615.32Z" transform="translate(-7.9)"/><path class="cls-12" d="M158.45,618.69c-3.06.45-5.74,2.07-8.66,3-3.45,1.31-7.13.69-10.65.11-7.5-.21-12.59,6.25-17.55,10.82,5.74.14,10.22,4.15,15.39,6,4.83,2,11.48.79,14.2-4,1.77-2.93,3.57-6.28,6.9-7.65,2.61-.81,5-3.29,4.61-6.18,0-1.69-1.77-2.28-3.27-2.24h0A4.84,4.84,0,0,0,158.45,618.69Z" transform="translate(-7.9)"/><path class="cls-12" d="M54,627.28c-1.32,6.83,3.59,12.68,4.21,19.26-.13,2-.49,4-.59,6,2.59-.27,5.08-1.8,7.73-1.14,9.34,1.78,16.08,9.13,24.53,12.91,7,3.48,15.84,4.08,22.79.09a13.55,13.55,0,0,0,6.81-13.82,3.63,3.63,0,0,0-1.89-2.8c-2.59-.84-5.32-1.16-7.91-2a32.85,32.85,0,0,1-15-12.09,6.84,6.84,0,0,0-5.55-3.36c-2.78.21-5.56.48-8.35.67-5.56.1-10.71-2.61-14.9-6.06-2.51-1.56-4.73-4.4-7.79-4.53h0C55.2,621.22,54.66,624.79,54,627.28Z" transform="translate(-7.9)"/><path class="cls-12" d="M176,635.57h0a7.2,7.2,0,0,0-1.22.19c-2.41.77-4,2.9-5.59,4.78-2.71,3.53-5.25,7.21-8.14,10.61a21.13,21.13,0,0,1-15.4,7.29c-7.66.27-15-2.78-21.49-6.47a10.48,10.48,0,0,0-.56,3.14,31.26,31.26,0,0,0,7.55,19.47,18.34,18.34,0,0,0,13.29,6.72c6.14,0,12.91-.35,17.77-4.6,3.23-3.11,6.07-6.62,9.08-10a9.31,9.31,0,0,1,4-2.21c4.25-1.65,8.52-4.21,10.67-8.39,2.81-5.51,1.57-12.59-2.42-17.21A9.38,9.38,0,0,0,176,635.57Z" transform="translate(-7.9)"/><path class="cls-9" d="M27.54,634.1a25.81,25.81,0,0,0,22.78,3c.59-.2,1.41-.41,1.23-1.25.15-3.25,0-6.53.35-9.78a47,47,0,0,1,3.22-9c.5-1.73-1.4-2.9-2.48-3.89-3.24-2.07-6.81-4.35-10.78-4.29h0a7,7,0,0,0-.79,0c-8.24.93-15.77,6.84-24.31,4.73-.9-.16-2.46-1.62-2.83-.19V614C17,621.52,20.63,629.35,27.54,634.1Z" transform="translate(-7.9)"/><path class="cls-9" d="M212.72,623.53c-5-.87-9.72-2.74-14.62-4a11.63,11.63,0,0,0-3.4-.47h0c-7,.05-14,6-13.66,13.29,0,3,2.64,5.19,5.28,6.13,4.94,1.82,10.47,1.21,15.35-.52,6.35-2.3,11.58-6.9,15.83-12v-.33C216.62,623.85,214.3,624.09,212.72,623.53Z" transform="translate(-7.9)"/><path class="cls-9" d="M184.28,665.34c2.36.7,6.33,1.77,8.72,2.36,10.44,2.64,13-3.21,19.34-5.41.73-.31,2.18-.75,1.88-1.8a27.94,27.94,0,0,0-7.3-10.82,18.92,18.92,0,0,0-10.62-5.75h0c-.42,0-.84-.09-1.27-.11-1.89-.22-4.15.58-4.66,2.61-.53,2.3,0,4.68-.29,7C189.54,657.74,186.78,661.73,184.28,665.34Z" transform="translate(-7.9)"/><path class="cls-9" d="M47.33,682c3.48-.64,7-1.32,10.44-2a111.62,111.62,0,0,0,14.7-1.61,23.3,23.3,0,0,0,13.25-11c-1.31-1.35-3.53-.08-5.17-.27-3.92-.18-7.42-2.58-10-5.37-2.24-2.25-2.7-5.64-4.26-8.23a13.47,13.47,0,0,0-7.75,1h0c-.57.23-1.13.47-1.66.73-4.09,2.38-6,7.07-7,11.5C49,671.84,48.05,676.9,47.33,682Z" transform="translate(-7.9)"/><path class="cls-9" d="M120.75,664.39c-1.87-.49-3.64.79-5.08,1.82-4.22,3.62-9.92,6.19-15.57,5.17-2-.13-3.88-1.53-5.6-1.81h0c-4.85,5-5.44,12.92-2.7,19.16a74.67,74.67,0,0,0,7.28,13.53c1.12-1.64,1.41-3.78,2.82-5.23,3.11-3.15,7.41-4.72,10.62-7.76a27.39,27.39,0,0,0,10-21.3C122.46,666.62,122.05,665.06,120.75,664.39Z" transform="translate(-7.9)"/><path class="cls-13" d="M151.69,87.75a5.59,5.59,0,0,1,3.36-1,6.33,6.33,0,0,1,4.91,2.1,7.93,7.93,0,0,1,1.9,5.51q0,8.88-10.09,12.73a63.73,63.73,0,0,1,2.4,16.13q0,10.5-5.55,16.9t-13.31,6.41a12.45,12.45,0,0,1-8.79-3.17,10.6,10.6,0,0,1-3.42-8.16,9.65,9.65,0,0,1,2.86-7.11,9,9,0,0,1,6.55-2.86,7.94,7.94,0,0,1,5.48,2.06,6.42,6.42,0,0,1,2.33,5,6.55,6.55,0,0,1-6.89,6.65l-.36-1.16a4.38,4.38,0,0,0,3.64-4.61,4.74,4.74,0,0,0-1.48-3.6,5.3,5.3,0,0,0-3.78-1.4,5.82,5.82,0,0,0-4.62,2.18,8,8,0,0,0-1.85,5.31,8.33,8.33,0,0,0,3,6.52,11.09,11.09,0,0,0,7.55,2.65,11.8,11.8,0,0,0,9.83-5q3.78-5,3.79-13.47,0-5.49-2.49-18.18-7.65-.08-11.69-3.7T131,94.2q0-9.3,8.45-17A30.25,30.25,0,0,1,159,69.05l.41,1q-9.85,5-9.85,19.7a76.41,76.41,0,0,0,2,15.74,9.07,9.07,0,0,0,5-3.75,10.74,10.74,0,0,0,1.76-6,8.52,8.52,0,0,0-1.54-5.21,4.46,4.46,0,0,0-3.62-2.08h-1Zm3.76-16.9a23.77,23.77,0,0,0-19.7,23q0,11.61,10.69,12.57a108.43,108.43,0,0,1-1-11.41Q145.4,79.91,155.45,70.85Z" transform="translate(-7.9)"/><path class="cls-13" d="M288.06,231.3a18.89,18.89,0,0,1-5.62,6,13.13,13.13,0,0,1-7.23,2,9.33,9.33,0,0,1-7.75-3.86q-3-3.85-3-10.07,0-12.57,11.85-29.27a11.42,11.42,0,0,1-4.65,1,9.57,9.57,0,0,1-5-1.4l-7.05,8.61V238L255,240.39v-44q0-2.28-1.08-2.28c-.67,0-1.68.9-3,2.68s-2.05,3-2.05,3.49c0,0,0,.21.12.56a42.81,42.81,0,0,1,.88,8.45q0,12.52-6.78,21.26t-15.92,8.72q-8.13,0-11.73-5.88l4.21-3.76.6.4q1.56,7,8.78,7,6.74,0,12-7t5.25-17.68q0-10.53-5-17T229,189a15,15,0,0,0-11.39,5.28,16.79,16.79,0,0,0-4.86,11.61,11.53,11.53,0,0,0,2.64,7.67,8.14,8.14,0,0,0,6.49,3.14,8.89,8.89,0,0,0,6.7-2.94,9.81,9.81,0,0,0,2.79-7,5.65,5.65,0,0,0-1.16-3.62,3.54,3.54,0,0,0-2.85-1.46c-1.68,0-2.64.91-2.88,2.72l-.8-.16a7,7,0,0,1-.28-1.64,4.87,4.87,0,0,1,1.36-3.48,4.46,4.46,0,0,1,3.4-1.45,4.87,4.87,0,0,1,4.09,2.21,9.3,9.3,0,0,1,1.6,5.6,15,15,0,0,1-4.05,10.31,12.75,12.75,0,0,1-9.84,4.51,9.23,9.23,0,0,1-7.29-3q-2.69-3-2.69-8.34a23.19,23.19,0,0,1,6.79-16.38q6.79-7.17,15.52-7.17a14.83,14.83,0,0,1,9.33,3q3.84,3,6.64,9.24A37.77,37.77,0,0,1,253,192a5,5,0,0,1,3.26-1.42,2.86,2.86,0,0,1,2.38,1.38,6.38,6.38,0,0,1,1,3.78v6.13l8.93-11.53a7,7,0,0,0,6.25,3.84,7.77,7.77,0,0,0,6-3l.92.92q-7.51,7.92-10,16.23a54.26,54.26,0,0,0-2.48,15.4,15.54,15.54,0,0,0,2.47,9.15,7.49,7.49,0,0,0,6.38,3.5q4.6,0,8.81-6.08Z" transform="translate(-7.9)"/><g class="cls-14"><path class="cls-8" d="M61.26,11.17a9.51,9.51,0,0,1,3.68.34,10.92,10.92,0,0,1,5.18,4.55,7.4,7.4,0,0,0,.78,1.19,1.41,1.41,0,0,0,.83.29,6,6,0,0,1,3.08,1.23,7.3,7.3,0,0,1,2.62,3.3,18.94,18.94,0,0,1,.89,5,10.78,10.78,0,0,1-.66,5.25c-.38.9-1,1.64-1.37,2.55a22.89,22.89,0,0,0,5.06-2.06,7.5,7.5,0,0,0,2.58-1.9,3.08,3.08,0,0,0,.12-3.08c-.28-.53-.6-1-.87-1.56A28,28,0,0,1,81.85,23a4.91,4.91,0,0,1-.17-1.71c-.07-2.21-.08-4.42-.18-6.63A8.86,8.86,0,0,0,79,12a8.09,8.09,0,0,0-3.19-1.44,46.06,46.06,0,0,1-5.5-.77,28.84,28.84,0,0,1-3.69-1.4,7.8,7.8,0,0,0-2.8-.74,11.27,11.27,0,0,0-2.5.48h0A3.08,3.08,0,0,0,60,8.63a7.41,7.41,0,0,0-2.47,2.83C58.79,11.33,60,11.18,61.26,11.17Z" transform="translate(-7.9)"/><path class="cls-8" d="M40.57,25.85a6.18,6.18,0,0,0,.48,2.33,5,5,0,0,0,1,1.23c.45-.55.95-1.07,1.35-1.67a7,7,0,0,1,1.49-1.63,57.7,57.7,0,0,0,.82,6.82,4.82,4.82,0,0,0,1.17,2.19,9.47,9.47,0,0,0,1.35,1.09c-.06-.48-.57-.69-.71-1.13s-.46-.86-.6-1.33A24.12,24.12,0,0,1,45.72,29a49,49,0,0,1-.36-8,12.66,12.66,0,0,1,.26-2.3,1.44,1.44,0,0,1,1-1.1,1.42,1.42,0,0,0,.87-1.23,4.5,4.5,0,0,1,1-2.71A4.61,4.61,0,0,1,51,12.84a23.93,23.93,0,0,0,2.54-.06,7.25,7.25,0,0,0-1.41-1.57,3.55,3.55,0,0,0-2.57-.9,5,5,0,0,0-3,.65h0a6,6,0,0,0-1.89,2.47,26.09,26.09,0,0,0-1.34,3.18c-.39,1.12-.63,2.29-1,3.41s-1,2.27-1.46,3.43A5.89,5.89,0,0,0,40.57,25.85Z" transform="translate(-7.9)"/><path class="cls-8" d="M52.87,15.54a6.71,6.71,0,0,1-3.15-.68c0,1.18,0,2.36,0,3.54a12.41,12.41,0,0,1-.26,2.65c-.36,1.47-1.13,2.8-1.54,4.25a8.35,8.35,0,0,0-.13,4.85c.15-.51.23-1,.33-1.55A13.92,13.92,0,0,1,52.92,20a11.07,11.07,0,0,1,7.22-2.57c1.32,0,2.48-.72,3.76-.94a4.13,4.13,0,0,1,3.16.3,10.46,10.46,0,0,1,2.17,2.84,5.26,5.26,0,0,0-1.86-3.88c-1.39-1.22-2.91-2.5-4.8-2.8A17.74,17.74,0,0,0,59,12.9c-1.14,0-1.92,1-2.74,1.65h0A5.77,5.77,0,0,1,52.87,15.54Z" transform="translate(-7.9)"/><path class="cls-8" d="M18.39,45a19.93,19.93,0,0,0,3.47,4.24,7.22,7.22,0,0,0,2.56,1.7,8.73,8.73,0,0,0,2.88.31A14.4,14.4,0,0,0,30.58,51c-.64-.52-1.3-1-1.94-1.53a13.93,13.93,0,0,1-3.25-3.68c-.58-1.13-1.13-2.28-1.63-3.45a38,38,0,0,1-1.85-6.88,1.5,1.5,0,0,1,1.1.51,7.25,7.25,0,0,0,2.15,1.5c.25.11.47-.15.55-.35a4,4,0,0,0,.14-1.72,45,45,0,0,0-1.28-6.06,9.13,9.13,0,0,1-.31-1.72,8.15,8.15,0,0,1,2.11,1.77,14.36,14.36,0,0,0,2.7,2.58,2.11,2.11,0,0,0,1.24.45,21.83,21.83,0,0,0,6.13-.55c1.33-.29,2.66-.59,4-.92a47.33,47.33,0,0,1-1.88-5.15,7.75,7.75,0,0,1,.27-3.88A9.81,9.81,0,0,1,40.49,19c-2.17-.69-4.3-1.52-6.53-2a24.86,24.86,0,0,0-6.21-.35,15.44,15.44,0,0,0-5.71,1h0A8.19,8.19,0,0,0,19.11,20a6.1,6.1,0,0,0-1,2.65,14,14,0,0,0-.34,3.48c.08,2.87.53,5.71.57,8.59a5.53,5.53,0,0,1-.58,2.42,16.53,16.53,0,0,1-1.93,2.64c-.26.25,0,.56.1.82C16.7,42.12,17.53,43.57,18.39,45Z" transform="translate(-7.9)"/><path class="cls-8" d="M74.81,28.67a18.41,18.41,0,0,0-3.55-3.22A14.94,14.94,0,0,1,67.92,22a8.45,8.45,0,0,1-1.47-2.74c-.06-.15-.1-.37-.29-.4a9.59,9.59,0,0,0-1.16.45h0a23.13,23.13,0,0,1-5.71,1.13,8,8,0,0,0-2.81.71A11.41,11.41,0,0,0,54,22.71a14.31,14.31,0,0,1,7.45-.94,9,9,0,0,1,4.08,1.86,8.68,8.68,0,0,1,2,2.95,11.2,11.2,0,0,1,.71,3,20.69,20.69,0,0,1,.24,2.08,10.54,10.54,0,0,1-.19,2.24,27.51,27.51,0,0,1-1.13,4.55,10.08,10.08,0,0,0-.57,1.79c1.15-.16,2-1.06,3-1.58a12.94,12.94,0,0,0,2.06-1.37c.65-.51,1.29-1,1.91-1.57a7.38,7.38,0,0,0,1.33-1.85,5.93,5.93,0,0,0,1-2.5A4.1,4.1,0,0,0,74.81,28.67Z" transform="translate(-7.9)"/><path class="cls-8" d="M63,26.25a8.43,8.43,0,0,0-2.57-2.14,5.44,5.44,0,0,0-2.19-.42,7.89,7.89,0,0,0-5.58,1.78h0a9.69,9.69,0,0,0-2.86,4.19,3.8,3.8,0,0,0,.66,2.79,3.59,3.59,0,0,0,3,1.08A3.31,3.31,0,0,0,55.6,33a5.8,5.8,0,0,0,1.82-2.42,2.93,2.93,0,0,0-.91-2.47.76.76,0,0,1-.65-.36,2.48,2.48,0,0,1-1.16,1.71,1.33,1.33,0,0,1-1.87-.56,4.59,4.59,0,0,1-.18-1.48c0-.36,0-.86.47-.94a10.31,10.31,0,0,1,4.58.27,8.73,8.73,0,0,1,1,1.92c.2.59.21,1.22.41,1.82A4,4,0,0,0,60,28.38c-.11-1-1-1.62-1.22-2.54.79-.28,1.46.39,1.91.95a4.16,4.16,0,0,1,.71,3.42,4.7,4.7,0,0,1-1.27,2.7,9.08,9.08,0,0,1-5.87,2.35c-.44,0-.88-.09-1.32-.1a5.18,5.18,0,0,0,1.93,1,5.33,5.33,0,0,0,1.84.4,13.77,13.77,0,0,0,2.63-.37,7.06,7.06,0,0,0,3.57-2.32,5.3,5.3,0,0,0,1.36-3.31,12.84,12.84,0,0,0-.13-2.4A4.49,4.49,0,0,0,63,26.25Z" transform="translate(-7.9)"/><path class="cls-8" d="M76.61,36.24c.46,1.49,1,3,1.33,4.47a3.34,3.34,0,0,0,.3.76,17.31,17.31,0,0,1,2.21-1.37c1.42-.78,2.77-1.68,4.12-2.56a18.61,18.61,0,0,0,3.53-2.71,7.23,7.23,0,0,0,1.42-1.66,9,9,0,0,0,1-2.76A13.48,13.48,0,0,0,90,23.83a22.3,22.3,0,0,1-.62,4.3,7.69,7.69,0,0,1-2.34,3.37,14.6,14.6,0,0,1-4.26,2.64A45.36,45.36,0,0,1,76.61,36.24Z" transform="translate(-7.9)"/><path class="cls-8" d="M35.9,49a24.51,24.51,0,0,1,1-3.56,17.4,17.4,0,0,1,2.77-4.89,14.45,14.45,0,0,1,4.07-3.84,7,7,0,0,0,.87-.53,2.88,2.88,0,0,0-.2-1.12,15.92,15.92,0,0,1-.64-3.2,8.75,8.75,0,0,0-.24-1.34,13.75,13.75,0,0,0-1.4,1.73h0c-1.06,1.47-2.09,3-3,4.51-.67,1.16-1.21,2.4-1.9,3.55S36,42.49,35.45,43.6a21,21,0,0,0-1.75,4.7,18.14,18.14,0,0,0-.07,4.1,29.79,29.79,0,0,0,.87,5.15,14.83,14.83,0,0,0,1.77,3.51c0-1.24-.37-2.43-.47-3.65-.14-1.49-.12-3-.12-4.47A22.48,22.48,0,0,1,35.9,49Z" transform="translate(-7.9)"/><path class="cls-8" d="M63.82,35.85c-.51.26-.93.66-1.42.95h0a12.27,12.27,0,0,1-4.75,1.77,4.31,4.31,0,0,1-1.19-.06,19,19,0,0,1-3-.66,13,13,0,0,1-1.43-.64A25.13,25.13,0,0,0,54.34,40a7,7,0,0,0,4,2.44,10.39,10.39,0,0,0,5.81-1c.23-.14.57-.24.62-.54,0-1.57-.64-3-.8-4.59C63.9,36.16,63.86,36,63.82,35.85Z" transform="translate(-7.9)"/><path class="cls-8" d="M74.46,46.62a5.75,5.75,0,0,0,1.26-2.14A12.06,12.06,0,0,0,76,42.59a9.2,9.2,0,0,0-.1-2.87,27.06,27.06,0,0,0-1-2.93c-1.15.75-2.29,1.52-3.41,2.3h0A28.56,28.56,0,0,1,60,44.26a31.06,31.06,0,0,0-7,2.31,17.39,17.39,0,0,0-3.78,2.57,21.74,21.74,0,0,0-4.34,5.17,55.21,55.21,0,0,0-2.43,5.09c-.43,1-1,1.9-1.4,2.89a12.8,12.8,0,0,0,1.54-1.4c1.28-1.22,2.57-2.43,3.88-3.61a3.48,3.48,0,0,0,1.1-1.42c.28-.8.09-1.7.44-2.48a5.24,5.24,0,0,1,1.59-1.52c1.92-1.42,3.79-2.91,5.73-4.29a8,8,0,0,1,4-1.73,10.39,10.39,0,0,1,3.81.23c1.7.54,3.36,1.17,5.07,1.65a10,10,0,0,0,3.92.19A3.7,3.7,0,0,0,74.46,46.62Z" transform="translate(-7.9)"/><path class="cls-8" d="M99.06,38.74a12.92,12.92,0,0,0-2.29-1.36,10,10,0,0,0-3.48-.78c-.46,0-.91-.26-1.37-.13-.73.16-1.44.42-2.16.62h0a17.33,17.33,0,0,0-4,1.8,41.27,41.27,0,0,0-5.35,3.73,22.38,22.38,0,0,0-3.15,3.08A3.71,3.71,0,0,0,76.48,47c1.78-1.09,3.55-2.22,5.4-3.19a23.73,23.73,0,0,1,3.65-1.41,2.29,2.29,0,0,1,1.1-.12A6.59,6.59,0,0,1,86,44.17c-.42.89-.73,1.82-1.13,2.72a18.06,18.06,0,0,1-3,4.71,23.66,23.66,0,0,1-3.57,3.21,25.75,25.75,0,0,1-3,2.11c-.31.22-.55.54-.87.76a14,14,0,0,0-3.05,2.91,4.31,4.31,0,0,0-.64,2.54c0,.68.38,1.27.41,1.94,0,.25-.07.59-.36.63-1.71.22-3.41.57-5.11.89-2.3.46-4.61.86-6.87,1.5A27.65,27.65,0,0,0,54,69.71a10.07,10.07,0,0,0-4.08,3.4,6.17,6.17,0,0,0-1,4.51c.32-.2.24-.59.28-.9A3.61,3.61,0,0,1,50.56,74a6.71,6.71,0,0,1,3.77-1c2.23-.06,4.44.38,6.67.42A2.87,2.87,0,0,0,62.55,73,15.87,15.87,0,0,0,65,71.34a12,12,0,0,1,1.91-1.07,6.33,6.33,0,0,1,2.48-.39A9.24,9.24,0,0,1,71.7,70a4.73,4.73,0,0,1,2,1.23,12.16,12.16,0,0,0,3,2.26,2.6,2.6,0,0,0,2.15,0,4.77,4.77,0,0,0,2.58-3c.2-.68,0-1.42.33-2.06a1.81,1.81,0,0,1,1.34-.86,18.4,18.4,0,0,1,5.07.36,1.84,1.84,0,0,0,1.68-1.11,4.9,4.9,0,0,0,.69-2.5c0-1.84-.37-3.67-.36-5.51a5.65,5.65,0,0,1,1.73-3.24c1-1,2.23-1.89,2.87-3.22a5.05,5.05,0,0,0,.11-3.41c-.42-1.72-1.14-3.34-1.71-5A5,5,0,0,1,93,41.15a2.34,2.34,0,0,1,1.81-1.72,10.67,10.67,0,0,1,2.88-.11,13.52,13.52,0,0,0,1.9.1A2.09,2.09,0,0,0,99.06,38.74Z" transform="translate(-7.9)"/><path class="cls-8" d="M12.79,55.81a58.49,58.49,0,0,0,4.38,5.51,27.67,27.67,0,0,0,4,3.47,5.53,5.53,0,0,0,4.1.82,8.85,8.85,0,0,0,3.51-1.9,8.31,8.31,0,0,0,1.44-1.52c.73-.91,1.39-1.87,2.08-2.81-.83.2-1.53.72-2.34.95a26.13,26.13,0,0,1-4,.16,7.56,7.56,0,0,1-2.5-.3,4.79,4.79,0,0,1-1.67-.72c.46-.39,1.07-.55,1.51-1a9.15,9.15,0,0,0-1.83-.68A9.54,9.54,0,0,1,19.81,57a13.13,13.13,0,0,1-2-1.61c-.71-.78-1.41-1.57-2.06-2.41A3.15,3.15,0,0,1,15,51.68a7.25,7.25,0,0,1,2,.81,18.38,18.38,0,0,0,6.73,1.79,22.66,22.66,0,0,0,3.68-.22,3.25,3.25,0,0,0,1.31-.33,18.77,18.77,0,0,0-2-.41,15.29,15.29,0,0,1-4.95-2.24,27.56,27.56,0,0,1-4.72-4.31,24.2,24.2,0,0,1-1.64-2.36,20.37,20.37,0,0,1-1.85,1.75h0A12.81,12.81,0,0,1,9.2,48.28a10.14,10.14,0,0,0-1.3.48,28.11,28.11,0,0,0,1.48,2.4C10.42,52.78,11.67,54.25,12.79,55.81Z" transform="translate(-7.9)"/><path class="cls-8" d="M70.31,58.24a16.51,16.51,0,0,1,2.85-2.43.41.41,0,0,0,.22-.42c0-.66-.15-1.31-.22-2C73,52.32,73,51.2,73,50.09a27.53,27.53,0,0,1-4.26,0h0a4,4,0,0,1-.28.8c-.31.64-.56,1.31-.9,1.94a19.1,19.1,0,0,1-3.25,4.29,36.68,36.68,0,0,1-4.59,4.13,4.24,4.24,0,0,1-1.54.85,7.31,7.31,0,0,1,.44-1.65,49.17,49.17,0,0,0,1.8-6.07,8.8,8.8,0,0,0,.3-2.22,4.78,4.78,0,0,0-.38.61c-1,2-1.81,4-2.84,5.94a18.13,18.13,0,0,1-6.62,6.57,9.48,9.48,0,0,1-3.14,1.14,19.43,19.43,0,0,1-4.75.45,6.5,6.5,0,0,0-1.39.09c.13.15.25.31.39.45a16.78,16.78,0,0,0,6.39,3.71c.55.16,1-.35,1.31-.69a10.28,10.28,0,0,1,2.69-2,30.7,30.7,0,0,1,6.11-2.12c2-.56,4.07-1.12,6.14-1.55,1.44-.31,2.91-.45,4.38-.66A23.8,23.8,0,0,1,68.82,61,5,5,0,0,1,70.31,58.24Z" transform="translate(-7.9)"/></g><path class="cls-15" d="M184.32,131.41a38.77,38.77,0,0,0-4.29,4.21A48.57,48.57,0,0,1,211.21,198a37.6,37.6,0,0,0,5.95-.89,54,54,0,0,0-32.84-65.71Z" transform="translate(-7.9)"/><path class="cls-16" d="M199.69,208.09a43.15,43.15,0,1,1-34.62-69.32,46.84,46.84,0,0,1,3.08-5.32c-.91,0-1.83-.08-2.76-.08a48.56,48.56,0,1,0,40.43,75.45A49.57,49.57,0,0,1,199.69,208.09Z" transform="translate(-7.9)"/><polygon class="cls-17" points="189.86 91.98 176.37 91.98 188.67 106.4 195.32 106.4 189.86 91.98"/><polygon class="cls-18" points="205.97 106.4 212.63 106.4 224.92 91.98 211.44 91.98 205.97 106.4"/><polygon class="cls-19" points="200.65 91.98 211.44 91.98 200.65 79.43 189.86 91.98 200.65 91.98"/><polygon class="cls-20" points="200.65 91.98 189.86 91.98 195.32 106.4 200.65 106.4 205.97 106.4 211.44 91.98 200.65 91.98"/><polygon class="cls-20" points="187.25 79.43 176.37 91.98 189.86 91.98 187.25 79.43"/><polygon class="cls-21" points="224.92 91.98 214.04 79.43 211.44 91.98 224.92 91.98"/><polygon class="cls-18" points="214.04 79.43 200.65 79.43 211.44 91.98 214.04 79.43"/><polygon class="cls-18" points="200.65 79.43 187.25 79.43 189.86 91.98 200.65 79.43"/><path class="cls-15" d="M257.1,160.35a48.62,48.62,0,0,0-33.9-46.29l1.54-7.66H208.55v10.79A43.14,43.14,0,1,1,195,119.38l-1.06-5.32A48.65,48.65,0,0,0,172,128.39a53.95,53.95,0,1,0,40.15,80.37A48.61,48.61,0,0,0,257.1,160.35Zm-91.71,70.13a48.56,48.56,0,0,1,0-97.11c.93,0,1.85,0,2.76.08a46.84,46.84,0,0,0-3.08,5.32,48.54,48.54,0,0,0,34.62,69.32,49.57,49.57,0,0,0,6.13.73A48.52,48.52,0,0,1,165.39,230.48Z" transform="translate(-7.9)"/><path class="cls-16" d="M165.39,160.35a43.16,43.16,0,1,0,43.16-43.16V106.4H192.37l1.53,7.66,1.06,5.32A43.24,43.24,0,0,0,165.39,160.35Zm5.4,0a37.48,37.48,0,0,1,5.81-20.1A43.15,43.15,0,0,1,205.45,198,37.8,37.8,0,0,1,170.79,160.35Zm75.52,0A37.68,37.68,0,0,1,211.21,198,48.57,48.57,0,0,0,180,135.62a38.77,38.77,0,0,1,4.29-4.21,37.73,37.73,0,0,1,62,28.94Z" transform="translate(-7.9)"/></g></g></svg>