<?xml version="1.0" encoding="iso-8859-1"?>
<!-- Generator: Adobe Illustrator 19.0.0, SVG Export Plug-In . SVG Version: 6.00 Build 0)  -->
<svg version="1.1" id="Capa_1" xmlns="http://www.w3.org/2000/svg" xmlns:xlink="http://www.w3.org/1999/xlink" x="0px" y="0px"
	 viewBox="0 0 464 464" style="enable-background:new 0 0 464 464;" xml:space="preserve">
<g>
	<path style="fill:#FFE6B9;" d="M232.13,154.172c-4.56,3.825-8.816,8.001-12.717,12.495C277.724,185.083,320,239.602,320,304
		c0,16.727-2.862,32.783-8.106,47.718c6.02-0.421,11.912-1.316,17.635-2.656c4.204-14.3,6.471-29.42,6.471-45.062
		C336,235.519,292.747,176.957,232.13,154.172z"/>
	<path style="fill:#EBD2AA;" d="M277.728,381.59C254.318,412.208,217.429,432,176,432c-70.578,0-128-57.422-128-128
		c0-70.252,56.894-127.46,127.024-127.988c2.722-5.464,5.778-10.732,9.146-15.777C181.466,160.084,178.743,160,176,160
		c-79.529,0-144,64.471-144,144c0,79.529,64.471,144,144,144c50.025,0,94.085-25.513,119.897-64.232
		C289.73,383.424,283.666,382.689,277.728,381.59z"/>
	<polygon style="fill:#82C8DC;" points="272,37.241 232,37.241 268.471,80 288.209,80 	"/>
	<polygon style="fill:#B4E6F0;" points="319.791,80 339.529,80 376,37.241 336,37.241 	"/>
	<polygon style="fill:#D9FFFF;" points="304,37.241 336,37.241 304,0 272,37.241 	"/>
	<polygon style="fill:#A0DCE6;" points="304,37.241 272,37.241 288.209,80 304,80 319.791,80 336,37.241 	"/>
	<polygon style="fill:#A0DCE6;" points="264.276,0 232,37.241 272,37.241 	"/>
	<polygon style="fill:#EBFFFF;" points="376,37.241 343.724,0 336,37.241 	"/>
	<polygon style="fill:#B4E6F0;" points="343.724,0 304,0 336,37.241 	"/>
	<polygon style="fill:#B4E6F0;" points="304,0 264.276,0 272,37.241 	"/>
	<path style="fill:#FFE6B9;" d="M448,240c0-64.262-42.314-118.82-100.542-137.292L352,80h-12.471h-19.739H304v32
		c70.581,0,128,57.419,128,128c0,70.58-57.419,128-128,128s-128-57.42-128-128c0-56.506,36.806-104.57,87.701-121.495l-3.159-15.797
		c-25.365,8.047-47.707,22.941-64.85,42.505C189.237,144.417,182.666,144,176,144c-88.223,0-160,71.777-160,160s71.777,160,160,160
		c59.266,0,111.11-32.392,138.758-80.401C389.155,378.078,448,315.784,448,240z M176,448c-79.529,0-144-64.471-144-144
		c0-79.529,64.471-144,144-144c2.743,0,5.466,0.084,8.171,0.235c-3.369,5.044-6.425,10.313-9.146,15.777
		C165.416,195.3,160,217.028,160,240c0,70.431,50.828,129.207,117.728,141.59c5.938,1.099,12.002,1.833,18.169,2.177
		C270.085,422.487,226.025,448,176,448z"/>
	<path style="fill:#EBD2AA;" d="M176,240c0,70.58,57.419,128,128,128s128-57.42,128-128c0-70.581-57.419-128-128-128V80h-15.791
		h-19.739H256l4.542,22.708l3.159,15.797C212.806,135.43,176,183.494,176,240z M192,240c0-21.896,6.322-42.342,17.227-59.617
		C263.748,195.053,304,244.911,304,304c0,16.822-3.268,32.893-9.193,47.62C237.334,346.929,192,298.662,192,240z M416,240
		c0,52.978-36.973,97.479-86.471,109.062c-5.723,1.339-11.615,2.235-17.635,2.656C317.138,336.783,320,320.727,320,304
		c0-64.398-42.276-118.917-100.586-137.333c3.901-4.494,8.157-8.669,12.717-12.495C251.595,137.847,276.667,128,304,128
		C365.758,128,416,178.242,416,240z"/>
</g>
<g>
</g>
<g>
</g>
<g>
</g>
<g>
</g>
<g>
</g>
<g>
</g>
<g>
</g>
<g>
</g>
<g>
</g>
<g>
</g>
<g>
</g>
<g>
</g>
<g>
</g>
<g>
</g>
<g>
</g>
</svg>
